<?xml version="1.0" encoding="UTF-8"?>
<svg xmlns="http://www.w3.org/2000/svg" xmlns:xlink="http://www.w3.org/1999/xlink" width="32px" height="32px" viewBox="0 0 32 32" version="1.1">
<defs>
<filter id="alpha" filterUnits="objectBoundingBox" x="0%" y="0%" width="100%" height="100%">
  <feColorMatrix type="matrix" in="SourceGraphic" values="0 0 0 0 1 0 0 0 0 1 0 0 0 0 1 0 0 0 1 0"/>
</filter>
<mask id="mask0">
  <g filter="url(#alpha)">
<rect x="0" y="0" width="32" height="32" style="fill:rgb(0%,0%,0%);fill-opacity:0.34902;stroke:none;"/>
  </g>
</mask>
<clipPath id="clip1">
  <rect x="0" y="0" width="32" height="32"/>
</clipPath>
<g id="surface5" clip-path="url(#clip1)">
<path style=" stroke:none;fill-rule:nonzero;fill:rgb(6.666667%,7.058824%,8.235294%);fill-opacity:1;" d="M 9.023438 1.660156 C 9.234375 1.546875 9.449219 1.546875 9.664062 1.664062 C 9.453125 1.664062 9.238281 1.664062 9.023438 1.660156 Z M 9.023438 1.660156 "/>
</g>
<mask id="mask1">
  <g filter="url(#alpha)">
<rect x="0" y="0" width="32" height="32" style="fill:rgb(0%,0%,0%);fill-opacity:0.670588;stroke:none;"/>
  </g>
</mask>
<clipPath id="clip2">
  <rect x="0" y="0" width="32" height="32"/>
</clipPath>
<g id="surface8" clip-path="url(#clip2)">
<path style=" stroke:none;fill-rule:nonzero;fill:rgb(3.137255%,4.313726%,7.058824%);fill-opacity:1;" d="M 2.5625 9.214844 C 2.605469 8.132812 2.46875 6.871094 2.621094 5.886719 C 2.625 6.996094 2.625 8.105469 2.625 9.214844 Z M 2.5625 9.214844 "/>
</g>
<mask id="mask2">
  <g filter="url(#alpha)">
<rect x="0" y="0" width="32" height="32" style="fill:rgb(0%,0%,0%);fill-opacity:0.380392;stroke:none;"/>
  </g>
</mask>
<clipPath id="clip3">
  <rect x="0" y="0" width="32" height="32"/>
</clipPath>
<g id="surface11" clip-path="url(#clip3)">
<path style=" stroke:none;fill-rule:nonzero;fill:rgb(2.745098%,3.529412%,3.921569%);fill-opacity:1;" d="M 29.121094 6.335938 C 29.21875 7.351562 29.242188 8.871094 29.105469 9.839844 C 29.140625 8.671875 29.105469 7.503906 29.121094 6.335938 Z M 29.121094 6.335938 "/>
</g>
<mask id="mask3">
  <g filter="url(#alpha)">
<rect x="0" y="0" width="32" height="32" style="fill:rgb(0%,0%,0%);fill-opacity:0.329412;stroke:none;"/>
  </g>
</mask>
<clipPath id="clip4">
  <rect x="0" y="0" width="32" height="32"/>
</clipPath>
<g id="surface14" clip-path="url(#clip4)">
<path style=" stroke:none;fill-rule:nonzero;fill:rgb(1.568628%,2.352941%,3.529412%);fill-opacity:1;" d="M 2.5625 9.214844 L 2.625 9.214844 C 2.625 9.492188 2.621094 9.769531 2.625 10.050781 C 2.464844 9.902344 2.582031 9.480469 2.5625 9.214844 Z M 2.5625 9.214844 "/>
</g>
<mask id="mask4">
  <g filter="url(#alpha)">
<rect x="0" y="0" width="32" height="32" style="fill:rgb(0%,0%,0%);fill-opacity:0.670588;stroke:none;"/>
  </g>
</mask>
<clipPath id="clip5">
  <rect x="0" y="0" width="32" height="32"/>
</clipPath>
<g id="surface17" clip-path="url(#clip5)">
<path style=" stroke:none;fill-rule:nonzero;fill:rgb(3.137255%,4.313726%,6.666667%);fill-opacity:1;" d="M 29.054688 11.136719 C 29.050781 10.703125 29.050781 10.269531 29.105469 9.839844 C 29.046875 10.222656 29.25 10.855469 29.054688 11.136719 Z M 29.054688 11.136719 "/>
</g>
<mask id="mask5">
  <g filter="url(#alpha)">
<rect x="0" y="0" width="32" height="32" style="fill:rgb(0%,0%,0%);fill-opacity:0.560784;stroke:none;"/>
  </g>
</mask>
<clipPath id="clip6">
  <rect x="0" y="0" width="32" height="32"/>
</clipPath>
<g id="surface20" clip-path="url(#clip6)">
<path style=" stroke:none;fill-rule:nonzero;fill:rgb(3.529412%,4.313726%,6.27451%);fill-opacity:1;" d="M 2.648438 10.21875 C 2.726562 10.539062 2.679688 10.875 2.6875 11.199219 C 2.539062 11.003906 2.628906 10.535156 2.648438 10.21875 Z M 2.648438 10.21875 "/>
</g>
<mask id="mask6">
  <g filter="url(#alpha)">
<rect x="0" y="0" width="32" height="32" style="fill:rgb(0%,0%,0%);fill-opacity:0.458824;stroke:none;"/>
  </g>
</mask>
<clipPath id="clip7">
  <rect x="0" y="0" width="32" height="32"/>
</clipPath>
<g id="surface23" clip-path="url(#clip7)">
<path style=" stroke:none;fill-rule:nonzero;fill:rgb(4.313726%,4.705882%,5.882353%);fill-opacity:1;" d="M 28.984375 11.886719 C 28.976562 11.746094 28.992188 11.601562 29.027344 11.464844 C 29.089844 11.574219 29.140625 11.847656 28.984375 11.886719 Z M 28.984375 11.886719 "/>
</g>
<mask id="mask7">
  <g filter="url(#alpha)">
<rect x="0" y="0" width="32" height="32" style="fill:rgb(0%,0%,0%);fill-opacity:0.439216;stroke:none;"/>
  </g>
</mask>
<clipPath id="clip8">
  <rect x="0" y="0" width="32" height="32"/>
</clipPath>
<g id="surface26" clip-path="url(#clip8)">
<path style=" stroke:none;fill-rule:nonzero;fill:rgb(3.529412%,3.137255%,5.098039%);fill-opacity:1;" d="M 2.710938 11.5 C 2.742188 11.675781 2.746094 11.851562 2.761719 12.03125 C 2.597656 11.984375 2.71875 11.65625 2.710938 11.5 Z M 2.710938 11.5 "/>
</g>
<mask id="mask8">
  <g filter="url(#alpha)">
<rect x="0" y="0" width="32" height="32" style="fill:rgb(0%,0%,0%);fill-opacity:0.54902;stroke:none;"/>
  </g>
</mask>
<clipPath id="clip9">
  <rect x="0" y="0" width="32" height="32"/>
</clipPath>
<g id="surface29" clip-path="url(#clip9)">
<path style=" stroke:none;fill-rule:nonzero;fill:rgb(3.921569%,4.313726%,5.490196%);fill-opacity:1;" d="M 28.917969 12.613281 C 28.933594 12.414062 28.953125 12.210938 28.976562 12.011719 C 28.925781 12.175781 29.097656 12.550781 28.917969 12.613281 Z M 28.917969 12.613281 "/>
</g>
<mask id="mask9">
  <g filter="url(#alpha)">
<rect x="0" y="0" width="32" height="32" style="fill:rgb(0%,0%,0%);fill-opacity:0.568627;stroke:none;"/>
  </g>
</mask>
<clipPath id="clip10">
  <rect x="0" y="0" width="32" height="32"/>
</clipPath>
<g id="surface32" clip-path="url(#clip10)">
<path style=" stroke:none;fill-rule:nonzero;fill:rgb(2.745098%,3.137255%,5.098039%);fill-opacity:1;" d="M 2.777344 12.140625 C 2.804688 12.316406 2.808594 12.492188 2.820312 12.671875 C 2.664062 12.617188 2.785156 12.296875 2.777344 12.140625 Z M 2.777344 12.140625 "/>
</g>
<mask id="mask10">
  <g filter="url(#alpha)">
<rect x="0" y="0" width="32" height="32" style="fill:rgb(0%,0%,0%);fill-opacity:0.541176;stroke:none;"/>
  </g>
</mask>
<clipPath id="clip11">
  <rect x="0" y="0" width="32" height="32"/>
</clipPath>
<g id="surface35" clip-path="url(#clip11)">
<path style=" stroke:none;fill-rule:nonzero;fill:rgb(3.137255%,4.313726%,4.705882%);fill-opacity:1;" d="M 28.855469 13.109375 C 28.867188 13.019531 28.886719 12.832031 28.898438 12.742188 C 28.976562 12.832031 29.003906 13.09375 28.855469 13.109375 Z M 28.855469 13.109375 "/>
</g>
<mask id="mask11">
  <g filter="url(#alpha)">
<rect x="0" y="0" width="32" height="32" style="fill:rgb(0%,0%,0%);fill-opacity:0.478431;stroke:none;"/>
  </g>
</mask>
<clipPath id="clip12">
  <rect x="0" y="0" width="32" height="32"/>
</clipPath>
<g id="surface38" clip-path="url(#clip12)">
<path style=" stroke:none;fill-rule:nonzero;fill:rgb(2.745098%,3.137255%,4.313726%);fill-opacity:1;" d="M 2.847656 12.871094 C 2.855469 12.960938 2.875 13.144531 2.882812 13.238281 C 2.738281 13.214844 2.765625 12.957031 2.847656 12.871094 Z M 2.847656 12.871094 "/>
</g>
<mask id="mask12">
  <g filter="url(#alpha)">
<rect x="0" y="0" width="32" height="32" style="fill:rgb(0%,0%,0%);fill-opacity:0.568627;stroke:none;"/>
  </g>
</mask>
<clipPath id="clip13">
  <rect x="0" y="0" width="32" height="32"/>
</clipPath>
<g id="surface41" clip-path="url(#clip13)">
<path style=" stroke:none;fill-rule:nonzero;fill:rgb(3.921569%,5.098039%,6.27451%);fill-opacity:1;" d="M 28.796875 13.621094 C 28.804688 13.527344 28.824219 13.34375 28.832031 13.25 C 28.910156 13.339844 28.941406 13.597656 28.796875 13.621094 Z M 28.796875 13.621094 "/>
</g>
<mask id="mask13">
  <g filter="url(#alpha)">
<rect x="0" y="0" width="32" height="32" style="fill:rgb(0%,0%,0%);fill-opacity:0.541176;stroke:none;"/>
  </g>
</mask>
<clipPath id="clip14">
  <rect x="0" y="0" width="32" height="32"/>
</clipPath>
<g id="surface44" clip-path="url(#clip14)">
<path style=" stroke:none;fill-rule:nonzero;fill:rgb(3.921569%,3.529412%,5.098039%);fill-opacity:1;" d="M 28.671875 14.453125 C 28.660156 14.347656 28.660156 14.242188 28.707031 14.144531 C 28.769531 14.21875 28.796875 14.4375 28.671875 14.453125 Z M 28.671875 14.453125 "/>
</g>
<mask id="mask14">
  <g filter="url(#alpha)">
<rect x="0" y="0" width="32" height="32" style="fill:rgb(0%,0%,0%);fill-opacity:0.341176;stroke:none;"/>
  </g>
</mask>
<clipPath id="clip15">
  <rect x="0" y="0" width="32" height="32"/>
</clipPath>
<g id="surface47" clip-path="url(#clip15)">
<path style=" stroke:none;fill-rule:nonzero;fill:rgb(2.352941%,2.745098%,3.137255%);fill-opacity:1;" d="M 6.144531 24.128906 C 6.0625 23.972656 5.984375 23.25 6.144531 23.101562 C 6.152344 23.445312 6.140625 23.785156 6.144531 24.128906 Z M 6.144531 24.128906 "/>
</g>
<mask id="mask15">
  <g filter="url(#alpha)">
<rect x="0" y="0" width="32" height="32" style="fill:rgb(0%,0%,0%);fill-opacity:0.521569;stroke:none;"/>
  </g>
</mask>
<clipPath id="clip16">
  <rect x="0" y="0" width="32" height="32"/>
</clipPath>
<g id="surface50" clip-path="url(#clip16)">
<path style=" stroke:none;fill-rule:nonzero;fill:rgb(3.529412%,3.529412%,5.490196%);fill-opacity:1;" d="M 8.714844 26.496094 C 8.808594 26.503906 8.992188 26.519531 9.085938 26.527344 C 8.996094 26.601562 8.746094 26.632812 8.714844 26.496094 Z M 8.714844 26.496094 "/>
</g>
<mask id="mask16">
  <g filter="url(#alpha)">
<rect x="0" y="0" width="32" height="32" style="fill:rgb(0%,0%,0%);fill-opacity:0.509804;stroke:none;"/>
  </g>
</mask>
<clipPath id="clip17">
  <rect x="0" y="0" width="32" height="32"/>
</clipPath>
<g id="surface53" clip-path="url(#clip17)">
<path style=" stroke:none;fill-rule:nonzero;fill:rgb(4.313726%,4.705882%,6.27451%);fill-opacity:1;" d="M 15.695312 30.847656 C 15.800781 30.847656 16.007812 30.847656 16.113281 30.847656 C 16.066406 30.96875 15.742188 30.96875 15.695312 30.847656 Z M 15.695312 30.847656 "/>
</g>
</defs>
<g id="surface1">
<path style=" stroke:none;fill-rule:nonzero;fill:rgb(10.196079%,12.941177%,13.725491%);fill-opacity:1;" d="M 15.574219 1.242188 C 15.722656 1.1875 15.871094 1.125 16.039062 1.175781 C 17.34375 1.648438 18.585938 2.332031 19.898438 2.75 C 20.941406 1.535156 22.960938 1.25 24.191406 2.367188 C 24.890625 2.902344 25.164062 3.777344 25.457031 4.558594 C 26.613281 4.894531 27.800781 5.214844 28.976562 5.515625 C 29.195312 5.726562 29.097656 6.0625 29.121094 6.335938 C 29.105469 7.503906 29.140625 8.671875 29.105469 9.839844 C 29.050781 10.269531 29.050781 10.703125 29.054688 11.136719 C 29.058594 11.246094 29.046875 11.355469 29.027344 11.464844 C 28.992188 11.601562 28.976562 11.746094 28.984375 11.886719 C 28.984375 11.917969 28.980469 11.980469 28.976562 12.011719 C 28.953125 12.210938 28.933594 12.414062 28.917969 12.613281 C 28.910156 12.644531 28.902344 12.710938 28.898438 12.742188 C 28.886719 12.832031 28.867188 13.019531 28.855469 13.109375 C 28.847656 13.144531 28.839844 13.214844 28.832031 13.25 C 28.824219 13.34375 28.804688 13.527344 28.796875 13.621094 C 28.820312 13.800781 28.773438 13.980469 28.707031 14.144531 C 28.660156 14.242188 28.660156 14.347656 28.671875 14.453125 C 28.335938 16.671875 27.636719 18.84375 26.652344 20.863281 C 26.601562 20.703125 26.394531 20.707031 26.257812 20.6875 C 25.835938 21.101562 25.808594 21.808594 25.296875 22.164062 C 25.085938 22.261719 25.535156 22.667969 25.195312 22.558594 C 24.925781 22.457031 24.816406 23.3125 24.699219 22.804688 C 26.925781 19.566406 27.996094 15.675781 28.300781 11.789062 C 28.339844 11.484375 28.347656 11.175781 28.347656 10.867188 C 28.484375 9.710938 28.40625 8.539062 28.398438 7.378906 C 28.402344 7.109375 28.40625 6.839844 28.375 6.574219 C 28.378906 6.347656 28.355469 6.046875 28.03125 6.078125 C 27.269531 5.84375 26.488281 5.679688 25.738281 5.417969 C 25.46875 5.273438 25.4375 5.480469 25.484375 5.710938 C 25.441406 6.074219 25.339844 6.421875 25.226562 6.765625 C 25.792969 7.007812 26.410156 7.101562 26.988281 7.320312 C 27 7.476562 27.015625 7.632812 27.03125 7.789062 C 26.992188 8.800781 27 9.816406 27.023438 10.832031 C 27.019531 10.9375 27.003906 11.144531 26.996094 11.25 C 26.953125 11.535156 26.953125 11.824219 26.957031 12.113281 C 26.863281 12.894531 26.785156 13.6875 26.613281 14.460938 C 26.519531 14.546875 26.535156 14.683594 26.582031 14.792969 C 26.234375 16.496094 25.714844 18.171875 24.898438 19.710938 C 24.765625 20.246094 24.863281 20.8125 24.820312 21.363281 C 24.800781 21.605469 24.785156 21.847656 24.769531 22.089844 C 24.742188 22.308594 24.710938 22.527344 24.691406 22.746094 C 24.414062 22.664062 24.585938 22.367188 24.554688 22.152344 C 24.445312 21.363281 24.832031 20.585938 24.59375 19.792969 C 24.894531 19.460938 25.1875 18.957031 24.757812 18.617188 C 25.652344 16.492188 26.132812 14.214844 26.320312 11.917969 C 26.34375 11.679688 26.355469 11.441406 26.355469 11.199219 C 26.363281 10.992188 26.371094 10.78125 26.382812 10.574219 C 26.453125 9.777344 26.464844 8.972656 26.394531 8.171875 C 26.394531 7.980469 26.398438 7.777344 26.175781 7.769531 C 25.726562 7.660156 25.25 7.410156 24.804688 7.453125 C 24.210938 8.292969 23.246094 8.808594 22.207031 8.78125 C 22.359375 9.558594 22.613281 10.320312 22.679688 11.117188 C 22.671875 11.40625 22.671875 11.695312 22.671875 11.984375 C 22.609375 13.292969 21.828125 14.417969 20.910156 15.296875 C 22.332031 16.175781 24.320312 16.84375 24.65625 18.695312 C 24.386719 18.90625 24.363281 18.230469 24.25 18.113281 C 23.535156 16.980469 22.285156 16.359375 21.136719 15.722656 C 21.015625 15.589844 20.734375 15.515625 20.742188 15.304688 C 21.148438 14.601562 21.78125 14.058594 22.140625 13.320312 C 22.191406 13.007812 22.503906 12.53125 21.960938 12.597656 C 22.277344 11.242188 21.878906 9.890625 21.480469 8.601562 C 21.078125 8.398438 20.644531 8.210938 20.417969 7.796875 C 20.167969 7.390625 20.230469 6.691406 19.875 6.476562 C 20.742188 5.476562 20.476562 3.921875 21.550781 3.054688 C 22.015625 2.578125 22.683594 2.519531 23.316406 2.546875 C 23.621094 2.511719 22.851562 2.261719 22.746094 2.273438 C 21.164062 1.914062 19.976562 3.296875 19.421875 4.613281 C 19.273438 4.851562 19.148438 5.105469 18.96875 5.324219 C 19.039062 4.902344 18.625 4.757812 18.324219 4.625 C 16.886719 4.03125 15.238281 3.886719 13.738281 4.328125 C 11.339844 5.023438 9.847656 7.453125 9.652344 9.847656 C 9.703125 10.613281 8.984375 11.125 8.972656 11.882812 C 9 11.894531 9.054688 11.925781 9.082031 11.9375 C 9.277344 12.050781 9.546875 12.113281 9.601562 12.359375 C 9.363281 12.324219 9.140625 12.214844 8.90625 12.160156 C 8.757812 12.324219 8.84375 12.582031 8.839844 12.785156 C 9.050781 12.808594 9.261719 12.835938 9.46875 12.878906 C 9.5 13.15625 9.019531 13.039062 8.894531 13.140625 C 8.964844 13.617188 9.230469 14.042969 9.554688 14.394531 C 9.457031 14.429688 9.363281 14.472656 9.277344 14.535156 C 9.699219 15.164062 10.433594 15.457031 10.960938 15.980469 C 11.039062 16.039062 11.007812 16.15625 10.996094 16.238281 C 10.472656 16.742188 9.777344 17.015625 9.234375 17.484375 C 9.109375 17.746094 8.621094 17.800781 8.976562 18.121094 C 8.050781 19.144531 7.398438 20.390625 6.980469 21.699219 C 6.722656 22.652344 6.484375 23.679688 6.734375 24.660156 C 6.824219 25.070312 7.199219 25.339844 7.507812 25.589844 C 7.398438 25.710938 7.292969 25.835938 7.207031 25.976562 C 6.578125 25.617188 6.175781 24.859375 6.144531 24.128906 C 6.140625 23.785156 6.152344 23.445312 6.144531 23.101562 C 6.078125 22.28125 5.359375 21.664062 5.101562 20.882812 C 3.980469 18.46875 3.183594 15.882812 2.882812 13.238281 C 2.875 13.144531 2.855469 12.960938 2.847656 12.871094 C 2.839844 12.820312 2.828125 12.722656 2.820312 12.671875 C 2.808594 12.492188 2.804688 12.316406 2.777344 12.140625 C 2.773438 12.113281 2.765625 12.058594 2.761719 12.03125 C 2.746094 11.851562 2.742188 11.675781 2.710938 11.5 C 2.695312 11.402344 2.6875 11.300781 2.6875 11.199219 C 2.679688 10.875 2.726562 10.539062 2.648438 10.21875 C 2.640625 10.175781 2.628906 10.09375 2.625 10.050781 C 2.621094 9.769531 2.625 9.492188 2.625 9.214844 C 2.625 8.105469 2.625 6.996094 2.621094 5.886719 C 2.574219 5.667969 2.59375 5.4375 2.839844 5.402344 C 3.976562 5.105469 5.117188 4.820312 6.257812 4.523438 C 6.605469 3.1875 7.558594 1.832031 9.023438 1.660156 C 9.238281 1.664062 9.453125 1.664062 9.664062 1.664062 C 10.472656 1.738281 11.207031 2.195312 11.730469 2.804688 C 11.902344 2.851562 12.066406 2.746094 12.226562 2.6875 C 13.332031 2.191406 14.464844 1.742188 15.574219 1.242188 M 15.761719 2 C 14.570312 2.53125 13.351562 2.988281 12.164062 3.53125 C 12.21875 3.78125 12.296875 4.027344 12.359375 4.277344 C 13.289062 3.886719 14.253906 3.515625 15.277344 3.492188 C 15.519531 3.542969 15.769531 3.515625 16.015625 3.5 C 17.058594 3.53125 18.054688 3.882812 19 4.285156 C 19.164062 4.066406 19.269531 3.6875 19.390625 3.402344 C 18.335938 2.96875 17.277344 2.539062 16.234375 2.074219 C 16.078125 2.03125 15.921875 1.886719 15.761719 2 M 8.117188 2.554688 C 8.335938 2.542969 8.558594 2.511719 8.777344 2.507812 C 8.890625 2.640625 9.277344 2.527344 9.480469 2.675781 C 10.53125 3.121094 10.949219 4.265625 11.085938 5.3125 C 11.339844 5.085938 11.621094 4.878906 11.8125 4.59375 C 11.765625 4.339844 11.738281 4.058594 11.589844 3.84375 C 11.210938 2.425781 9.308594 1.769531 8.117188 2.554688 M 8.257812 3.070312 C 8.042969 3.058594 7.804688 3.152344 7.671875 3.316406 C 6.167969 4.570312 6.804688 7.648438 8.832031 8.066406 C 9.066406 8.179688 9.273438 8.179688 9.453125 8.058594 C 9.578125 7.789062 9.691406 7.511719 9.804688 7.234375 C 9.960938 7.027344 10.054688 6.773438 10.164062 6.539062 C 9.847656 6.402344 9.746094 6.046875 9.523438 5.8125 C 9.417969 5.53125 9.558594 5.542969 9.75 5.710938 C 9.894531 5.921875 10.273438 6.074219 10.554688 6.082031 C 10.640625 4.90625 10.234375 3.324219 8.898438 3.070312 C 8.679688 2.953125 8.46875 2.953125 8.257812 3.070312 M 22.71875 3.070312 C 22.125 3.160156 21.617188 3.617188 21.382812 4.160156 C 21.066406 4.878906 20.976562 5.679688 20.660156 6.390625 C 21.039062 6.261719 21.527344 6.15625 21.757812 5.824219 C 21.941406 5.832031 22.175781 5.359375 22.21875 5.621094 C 21.941406 6.246094 21.464844 6.867188 20.742188 7.054688 C 20.734375 7.320312 20.925781 7.644531 21.101562 7.769531 C 21.308594 7.984375 21.601562 8.074219 21.886719 8.125 C 21.964844 8.292969 22.589844 8.214844 22.65625 8.125 C 24.808594 7.847656 25.664062 4.519531 23.9375 3.257812 C 23.808594 3.148438 23.601562 3.09375 23.425781 3.070312 C 23.394531 2.90625 22.742188 2.988281 22.71875 3.070312 M 3.539062 6.035156 C 3.183594 6.152344 3.386719 6.644531 3.328125 6.910156 C 3.210938 7.742188 3.226562 9.027344 3.328125 9.855469 C 3.324219 10.296875 3.320312 10.746094 3.417969 11.179688 C 3.421875 11.335938 3.308594 11.652344 3.457031 11.710938 C 3.734375 15.167969 4.570312 18.738281 6.398438 21.6875 C 6.597656 21.230469 6.886719 20.621094 7.035156 20.105469 C 5.792969 17.839844 5.210938 15.28125 4.851562 12.75 C 4.832031 12.59375 4.945312 12.28125 4.796875 12.226562 C 4.8125 11.867188 4.753906 11.511719 4.707031 11.15625 C 4.738281 10.78125 4.8125 10.246094 4.671875 9.984375 C 4.675781 9.515625 4.675781 9.046875 4.671875 8.574219 C 4.832031 8.265625 4.691406 7.652344 4.738281 7.234375 C 5.308594 7.074219 5.886719 6.9375 6.460938 6.765625 C 6.355469 6.3125 6.15625 5.855469 6.199219 5.371094 C 5.304688 5.550781 4.421875 5.808594 3.539062 6.035156 M 6.816406 7.375 C 6.410156 7.597656 5.574219 7.484375 5.375 7.933594 L 5.316406 7.9375 C 5.339844 8.859375 5.234375 9.933594 5.375 10.753906 C 5.378906 11.109375 5.453125 11.460938 5.46875 11.820312 C 5.476562 12.007812 5.3125 12.417969 5.511719 12.484375 C 5.515625 12.515625 5.53125 12.582031 5.539062 12.613281 C 5.46875 12.722656 5.425781 12.988281 5.566406 13.042969 C 5.828125 15.230469 6.382812 17.40625 7.375 19.386719 C 7.527344 19.324219 7.578125 19.125 7.671875 19.003906 C 8.394531 17.714844 9.585938 16.773438 10.886719 16.117188 C 9.738281 15.484375 8.675781 14.476562 8.304688 13.246094 C 8.277344 13.128906 7.980469 13.128906 7.949219 13.246094 C 7.511719 13.296875 7.082031 13.4375 6.640625 13.433594 C 7.027344 13.050781 7.625 13 8.125 12.867188 C 8.457031 12.949219 8.285156 12.535156 8.308594 12.335938 C 8.421875 12.011719 8.308594 11.871094 7.96875 11.914062 C 7.949219 11.613281 8.488281 11.773438 8.425781 11.648438 C 8.601562 11.136719 8.808594 10.632812 9.058594 10.152344 C 9.035156 9.695312 9.3125 9.125 9.136719 8.71875 C 8.195312 8.707031 7.316406 8.15625 6.816406 7.375 Z M 6.816406 7.375 "/>
<use xlink:href="#surface5" mask="url(#mask0)"/>
<path style=" stroke:none;fill-rule:nonzero;fill:rgb(94.117647%,73.725492%,33.333334%);fill-opacity:1;" d="M 15.761719 2 C 15.921875 1.886719 16.078125 2.03125 16.234375 2.074219 C 17.277344 2.539062 18.335938 2.96875 19.390625 3.402344 C 19.269531 3.6875 19.164062 4.066406 19 4.285156 C 18.054688 3.882812 17.058594 3.53125 16.015625 3.5 C 15.769531 3.457031 15.523438 3.464844 15.277344 3.492188 C 14.253906 3.515625 13.289062 3.886719 12.359375 4.277344 C 12.296875 4.027344 12.21875 3.78125 12.164062 3.53125 C 13.351562 2.988281 14.570312 2.53125 15.761719 2 Z M 15.761719 2 "/>
<path style=" stroke:none;fill-rule:nonzero;fill:rgb(55.686277%,58.823532%,60.392159%);fill-opacity:1;" d="M 8.117188 2.554688 C 9.308594 1.769531 11.210938 2.425781 11.589844 3.84375 C 11.28125 3.566406 11.148438 3.132812 10.777344 2.914062 C 10.273438 2.429688 9.535156 2.378906 8.875 2.371094 C 8.859375 2.429688 8.847656 2.488281 8.777344 2.507812 C 8.558594 2.511719 8.335938 2.542969 8.117188 2.554688 Z M 8.117188 2.554688 "/>
<path style=" stroke:none;fill-rule:nonzero;fill:rgb(54.901963%,58.431375%,60.392159%);fill-opacity:1;" d="M 19.421875 4.613281 C 19.976562 3.296875 21.164062 1.914062 22.746094 2.273438 C 22.851562 2.261719 23.621094 2.511719 23.316406 2.546875 C 23.214844 2.457031 22.515625 2.609375 22.847656 2.359375 C 21.511719 2.144531 20.382812 3.207031 19.78125 4.292969 C 19.679688 4.386719 19.605469 4.714844 19.421875 4.613281 Z M 19.421875 4.613281 "/>
<path style=" stroke:none;fill-rule:nonzero;fill:rgb(45.09804%,48.627451%,51.372552%);fill-opacity:1;" d="M 19.78125 4.292969 C 20.382812 3.207031 21.511719 2.144531 22.847656 2.359375 C 22.515625 2.609375 23.214844 2.457031 23.316406 2.546875 C 22.683594 2.519531 22.015625 2.578125 21.550781 3.054688 C 20.476562 3.921875 20.742188 5.476562 19.875 6.476562 C 20.230469 6.691406 20.167969 7.390625 20.417969 7.796875 C 20.652344 8.730469 21.191406 9.570312 21.261719 10.550781 C 21.503906 12.003906 20.871094 13.511719 19.828125 14.511719 C 18.902344 15.335938 17.742188 15.890625 16.523438 16.089844 C 15.820312 16.273438 15.15625 16.585938 14.445312 16.757812 C 13.910156 16.777344 13.367188 16.695312 12.863281 16.511719 C 12.355469 16.332031 12.019531 15.847656 11.496094 15.703125 C 10.742188 15.457031 10.082031 14.976562 9.554688 14.394531 C 9.230469 14.042969 8.964844 13.617188 8.894531 13.140625 C 9.019531 13.039062 9.5 13.15625 9.46875 12.878906 C 9.261719 12.835938 9.050781 12.808594 8.839844 12.785156 C 8.84375 12.582031 8.757812 12.324219 8.90625 12.160156 C 9.140625 12.214844 9.363281 12.324219 9.601562 12.359375 C 9.546875 12.113281 9.277344 12.050781 9.082031 11.9375 C 9.929688 10.648438 9.757812 9.046875 10.441406 7.6875 C 10.949219 6.515625 11.855469 5.515625 12.996094 4.9375 C 14.289062 4.335938 15.78125 4.164062 17.179688 4.4375 C 17.570312 4.441406 17.9375 4.679688 18.324219 4.625 C 18.625 4.757812 19.039062 4.902344 18.96875 5.324219 C 19.148438 5.105469 19.273438 4.851562 19.421875 4.613281 C 19.605469 4.714844 19.679688 4.386719 19.78125 4.292969 M 16.917969 7.191406 C 16.417969 7.261719 15.949219 7.488281 15.566406 7.820312 C 15.464844 8.011719 15.339844 8.496094 15.785156 8.234375 C 16.503906 7.765625 17.460938 7.558594 18.246094 8 C 18.273438 7.34375 17.433594 7.105469 16.917969 7.191406 M 11.289062 7.320312 C 10.957031 7.390625 10.609375 7.632812 10.621094 8.003906 C 11.097656 7.832031 11.601562 7.6875 12.09375 7.941406 C 12.421875 8.019531 12.996094 8.613281 12.789062 7.828125 C 12.433594 7.40625 11.816406 7.242188 11.289062 7.320312 M 10.1875 9.28125 C 9.972656 9.464844 10.402344 9.628906 10.382812 9.847656 C 10.433594 10.523438 11.03125 11.109375 11.726562 11.089844 C 11.550781 11.183594 11.367188 11.273438 11.25 11.441406 C 10.984375 11.945312 10.214844 11.816406 10.039062 12.410156 C 9.785156 13.195312 10.371094 14.042969 11.113281 14.296875 C 11.394531 14.726562 11.824219 15.070312 12.332031 15.195312 C 12.527344 15.316406 12.363281 15.644531 12.546875 15.808594 C 12.984375 16.730469 14.753906 16.542969 14.675781 15.378906 C 15.734375 15.203125 16.464844 14.351562 17.351562 13.824219 C 17.566406 13.75 17.609375 13.996094 17.6875 14.140625 C 18.011719 13.871094 17.6875 13.269531 17.28125 13.246094 C 16.675781 13.066406 17.058594 13.339844 17.148438 13.488281 C 16.210938 13.867188 15.570312 14.855469 14.484375 14.9375 C 14.132812 14.882812 13.773438 14.917969 13.421875 14.933594 C 12.910156 14.878906 12.414062 14.726562 11.96875 14.460938 C 11.941406 14.449219 11.6875 14.304688 11.820312 14.257812 C 12.441406 14.007812 13.070312 13.421875 12.90625 12.695312 C 12.71875 12.226562 12.230469 11.921875 11.757812 11.800781 C 12.464844 11.527344 13.066406 11.027344 13.820312 10.859375 C 13.800781 10.84375 13.765625 10.8125 13.746094 10.796875 C 13.832031 10.785156 14 10.761719 14.085938 10.75 C 13.777344 10.542969 13.285156 10.65625 12.925781 10.628906 C 13.171875 10.402344 13.191406 10.054688 13.273438 9.75 C 13.421875 9.640625 13.582031 9.46875 13.425781 9.289062 C 12.726562 9.261719 12.027344 9.289062 11.328125 9.28125 C 11.121094 9.101562 10.355469 9.21875 10.1875 9.28125 M 16.921875 9.246094 C 16.273438 9.308594 15.621094 9.265625 14.976562 9.28125 C 14.96875 9.363281 14.972656 9.441406 14.988281 9.519531 C 15.394531 9.773438 15.21875 10.394531 15.617188 10.6875 C 16.488281 11.523438 18.289062 11.175781 18.414062 9.847656 C 18.40625 9.597656 18.902344 9.484375 18.609375 9.226562 C 18.046875 9.199219 17.480469 9.203125 16.921875 9.246094 M 18.710938 11.808594 C 17.660156 11.890625 16.496094 11.972656 15.609375 12.539062 C 16.96875 12.492188 18.28125 11.925781 19.664062 12.023438 C 19.4375 11.75 19.023438 11.832031 18.710938 11.808594 M 16.410156 12.894531 C 16.210938 12.863281 16.097656 13.066406 16.339844 13.097656 C 17.394531 13.121094 18.464844 13.214844 19.476562 13.542969 C 19.570312 13.558594 19.789062 13.632812 19.695312 13.460938 C 18.703125 12.921875 17.519531 12.785156 16.410156 12.894531 Z M 16.410156 12.894531 "/>
<path style=" stroke:none;fill-rule:nonzero;fill:rgb(45.09804%,48.627451%,51.372552%);fill-opacity:1;" d="M 8.875 2.371094 C 9.535156 2.378906 10.273438 2.429688 10.777344 2.914062 C 11.148438 3.132812 11.28125 3.566406 11.589844 3.84375 C 11.738281 4.058594 11.765625 4.339844 11.8125 4.59375 C 11.621094 4.878906 11.339844 5.085938 11.085938 5.3125 C 10.949219 4.265625 10.53125 3.121094 9.480469 2.675781 C 9.277344 2.527344 8.890625 2.640625 8.777344 2.507812 C 8.847656 2.488281 8.859375 2.429688 8.875 2.371094 Z M 8.875 2.371094 "/>
<path style=" stroke:none;fill-rule:nonzero;fill:rgb(45.09804%,48.627451%,51.372552%);fill-opacity:1;" d="M 17.085938 22.3125 C 17.972656 21.363281 19.292969 20.742188 20.609375 20.917969 C 21.113281 20.851562 21.6875 21.464844 21.234375 21.882812 C 20.980469 21.769531 20.84375 21.472656 20.546875 21.433594 C 20.417969 21.398438 19.828125 21.128906 19.917969 21.421875 C 20.246094 21.59375 20.582031 21.769531 20.851562 22.027344 C 21.109375 22.304688 21.058594 22.839844 20.679688 22.976562 C 20.453125 22.300781 19.757812 21.84375 19.054688 21.828125 C 19.433594 22.199219 20.03125 22.363281 20.230469 22.90625 C 20.378906 23.113281 20.269531 23.480469 19.984375 23.421875 C 19.824219 22.855469 19.257812 22.550781 18.722656 22.433594 C 18.296875 22.144531 18.402344 22.574219 18.5625 22.65625 C 18.039062 22.703125 17.578125 22.433594 17.085938 22.3125 Z M 17.085938 22.3125 "/>
<path style=" stroke:none;fill-rule:nonzero;fill:rgb(41.960785%,31.764707%,30.588236%);fill-opacity:1;" d="M 8.257812 3.070312 C 8.46875 2.953125 8.679688 2.953125 8.898438 3.070312 C 8.683594 3.070312 8.46875 3.070312 8.257812 3.070312 Z M 8.257812 3.070312 "/>
<path style=" stroke:none;fill-rule:nonzero;fill:rgb(38.82353%,28.235295%,27.843139%);fill-opacity:1;" d="M 22.71875 3.070312 C 22.742188 2.988281 23.394531 2.90625 23.425781 3.070312 C 23.1875 3.070312 22.953125 3.070312 22.71875 3.070312 Z M 22.71875 3.070312 "/>
<path style=" stroke:none;fill-rule:nonzero;fill:rgb(77.64706%,51.372552%,44.705883%);fill-opacity:1;" d="M 7.671875 3.316406 C 7.804688 3.152344 8.042969 3.058594 8.257812 3.070312 C 8.46875 3.070312 8.683594 3.070312 8.898438 3.070312 C 10.234375 3.324219 10.640625 4.90625 10.554688 6.082031 C 10.273438 6.074219 9.894531 5.921875 9.75 5.710938 C 9.988281 4.46875 8.847656 3.394531 7.671875 3.316406 Z M 7.671875 3.316406 "/>
<path style=" stroke:none;fill-rule:nonzero;fill:rgb(78.431374%,51.372552%,44.705883%);fill-opacity:1;" d="M 21.382812 4.160156 C 21.617188 3.617188 22.125 3.160156 22.71875 3.070312 C 22.953125 3.070312 23.1875 3.070312 23.425781 3.070312 C 23.601562 3.09375 23.808594 3.148438 23.9375 3.257812 C 23.183594 3.410156 22.390625 3.777344 22.039062 4.5 C 21.824219 4.910156 21.816406 5.375 21.757812 5.824219 C 21.527344 6.15625 21.039062 6.261719 20.660156 6.390625 C 20.976562 5.679688 21.066406 4.878906 21.382812 4.160156 Z M 21.382812 4.160156 "/>
<path style=" stroke:none;fill-rule:nonzero;fill:rgb(96.078432%,67.450982%,59.215689%);fill-opacity:1;" d="M 22.039062 4.5 C 22.390625 3.777344 23.183594 3.410156 23.9375 3.257812 C 25.664062 4.519531 24.808594 7.847656 22.65625 8.125 C 22.398438 8.128906 22.144531 8.128906 21.886719 8.125 C 21.601562 8.074219 21.308594 7.984375 21.101562 7.769531 C 21.941406 7.449219 22.464844 6.503906 22.21875 5.621094 C 22.175781 5.359375 21.941406 5.832031 21.757812 5.824219 C 21.816406 5.375 21.824219 4.910156 22.039062 4.5 Z M 22.039062 4.5 "/>
<path style=" stroke:none;fill-rule:nonzero;fill:rgb(95.686275%,67.450982%,58.823532%);fill-opacity:1;" d="M 8.832031 8.066406 C 6.804688 7.648438 6.167969 4.570312 7.671875 3.316406 C 8.847656 3.394531 9.988281 4.46875 9.75 5.710938 C 9.558594 5.542969 9.417969 5.53125 9.523438 5.8125 C 9.382812 6.316406 9.546875 6.808594 9.804688 7.234375 C 9.691406 7.511719 9.578125 7.789062 9.453125 8.058594 C 9.246094 8.0625 9.039062 8.066406 8.832031 8.066406 Z M 8.832031 8.066406 "/>
<path style=" stroke:none;fill-rule:nonzero;fill:rgb(59.215689%,48.235294%,29.019609%);fill-opacity:1;" d="M 15.277344 3.492188 C 15.523438 3.464844 15.769531 3.457031 16.015625 3.5 C 15.769531 3.515625 15.519531 3.542969 15.277344 3.492188 Z M 15.277344 3.492188 "/>
<path style=" stroke:none;fill-rule:nonzero;fill:rgb(57.254905%,60.392159%,61.960787%);fill-opacity:1;" d="M 13.738281 4.328125 C 15.238281 3.886719 16.886719 4.03125 18.324219 4.625 C 17.9375 4.679688 17.570312 4.441406 17.179688 4.4375 C 15.78125 4.164062 14.289062 4.335938 12.996094 4.9375 C 11.855469 5.515625 10.949219 6.515625 10.441406 7.6875 C 9.757812 9.046875 9.929688 10.648438 9.082031 11.9375 C 9.054688 11.925781 9 11.894531 8.972656 11.882812 C 8.984375 11.125 9.703125 10.613281 9.652344 9.847656 C 9.847656 7.453125 11.339844 5.023438 13.738281 4.328125 Z M 13.738281 4.328125 "/>
<path style=" stroke:none;fill-rule:nonzero;fill:rgb(94.901961%,74.117649%,32.549021%);fill-opacity:1;" d="M 3.539062 6.035156 C 4.421875 5.808594 5.304688 5.550781 6.199219 5.371094 C 6.15625 5.855469 6.355469 6.3125 6.460938 6.765625 C 5.886719 6.9375 5.308594 7.074219 4.738281 7.234375 C 4.582031 7.59375 4.710938 8.148438 4.671875 8.574219 C 4.675781 9.046875 4.675781 9.515625 4.671875 9.984375 C 4.671875 10.375 4.648438 10.769531 4.707031 11.15625 C 4.753906 11.511719 4.8125 11.867188 4.796875 12.226562 C 4.800781 12.398438 4.765625 12.585938 4.851562 12.75 C 5.210938 15.28125 5.792969 17.839844 7.035156 20.105469 C 6.886719 20.621094 6.597656 21.230469 6.398438 21.6875 C 4.570312 18.738281 3.734375 15.167969 3.457031 11.710938 C 3.453125 11.53125 3.453125 11.355469 3.417969 11.179688 C 3.320312 10.746094 3.324219 10.296875 3.328125 9.855469 C 3.328125 8.875 3.332031 7.894531 3.328125 6.910156 C 3.386719 6.644531 3.183594 6.152344 3.539062 6.035156 Z M 3.539062 6.035156 "/>
<path style=" stroke:none;fill-rule:nonzero;fill:rgb(94.901961%,74.117649%,32.549021%);fill-opacity:1;" d="M 25.484375 5.710938 C 25.515625 5.5625 25.546875 5.398438 25.738281 5.417969 C 26.488281 5.679688 27.269531 5.84375 28.03125 6.078125 C 28.355469 6.046875 28.378906 6.347656 28.375 6.574219 C 28.359375 6.839844 28.367188 7.109375 28.398438 7.378906 C 28.40625 8.539062 28.484375 9.710938 28.347656 10.867188 C 28.28125 11.171875 28.289062 11.484375 28.300781 11.789062 C 27.996094 15.675781 26.925781 19.566406 24.699219 22.804688 L 24.691406 22.746094 C 24.710938 22.527344 24.742188 22.308594 24.769531 22.089844 C 24.808594 21.847656 24.824219 21.605469 24.820312 21.363281 C 24.863281 20.8125 24.765625 20.246094 24.898438 19.710938 C 25.714844 18.171875 26.234375 16.496094 26.582031 14.792969 C 26.65625 14.695312 26.648438 14.570312 26.613281 14.460938 C 26.785156 13.6875 26.863281 12.894531 26.957031 12.113281 C 27 11.824219 27 11.535156 26.996094 11.25 C 27.003906 11.144531 27.019531 10.9375 27.023438 10.832031 C 27.097656 9.820312 27.105469 8.800781 27.03125 7.789062 C 27.015625 7.632812 27 7.476562 26.988281 7.320312 C 26.410156 7.101562 25.792969 7.007812 25.226562 6.765625 C 25.339844 6.421875 25.441406 6.074219 25.484375 5.710938 Z M 25.484375 5.710938 "/>
<path style=" stroke:none;fill-rule:nonzero;fill:rgb(46.666667%,38.039216%,23.137255%);fill-opacity:1;" d="M 25.484375 5.710938 C 25.4375 5.480469 25.46875 5.273438 25.738281 5.417969 C 25.546875 5.398438 25.515625 5.5625 25.484375 5.710938 Z M 25.484375 5.710938 "/>
<path style=" stroke:none;fill-rule:nonzero;fill:rgb(78.039217%,51.372552%,45.09804%);fill-opacity:1;" d="M 20.742188 7.054688 C 21.464844 6.867188 21.941406 6.246094 22.21875 5.621094 C 22.464844 6.503906 21.941406 7.449219 21.101562 7.769531 C 20.925781 7.644531 20.734375 7.320312 20.742188 7.054688 Z M 20.742188 7.054688 "/>
<path style=" stroke:none;fill-rule:nonzero;fill:rgb(76.078433%,52.156866%,45.09804%);fill-opacity:1;" d="M 9.523438 5.8125 C 9.746094 6.046875 9.847656 6.402344 10.164062 6.539062 C 10.054688 6.773438 9.960938 7.027344 9.804688 7.234375 C 9.546875 6.808594 9.382812 6.316406 9.523438 5.8125 Z M 9.523438 5.8125 "/>
<use xlink:href="#surface8" mask="url(#mask1)"/>
<use xlink:href="#surface11" mask="url(#mask2)"/>
<path style=" stroke:none;fill-rule:nonzero;fill:rgb(68.627453%,56.862748%,37.254903%);fill-opacity:1;" d="M 28.375 6.574219 C 28.40625 6.839844 28.402344 7.109375 28.398438 7.378906 C 28.367188 7.109375 28.359375 6.839844 28.375 6.574219 Z M 28.375 6.574219 "/>
<path style=" stroke:none;fill-rule:nonzero;fill:rgb(45.882353%,35.686275%,18.431373%);fill-opacity:1;" d="M 3.328125 9.855469 C 3.226562 9.027344 3.210938 7.742188 3.328125 6.910156 C 3.332031 7.894531 3.328125 8.875 3.328125 9.855469 Z M 3.328125 9.855469 "/>
<path style=" stroke:none;fill-rule:nonzero;fill:rgb(8.627451%,13.333334%,16.862746%);fill-opacity:1;" d="M 16.917969 7.191406 C 17.433594 7.105469 18.273438 7.34375 18.246094 8 C 17.460938 7.558594 16.503906 7.765625 15.785156 8.234375 C 15.339844 8.496094 15.464844 8.011719 15.566406 7.820312 C 15.949219 7.488281 16.417969 7.261719 16.917969 7.191406 Z M 16.917969 7.191406 "/>
<path style=" stroke:none;fill-rule:nonzero;fill:rgb(49.019608%,39.215687%,18.039216%);fill-opacity:1;" d="M 4.671875 8.574219 C 4.710938 8.148438 4.582031 7.59375 4.738281 7.234375 C 4.691406 7.652344 4.832031 8.265625 4.671875 8.574219 Z M 4.671875 8.574219 "/>
<path style=" stroke:none;fill-rule:nonzero;fill:rgb(8.627451%,13.725491%,16.862746%);fill-opacity:1;" d="M 11.289062 7.320312 C 11.816406 7.242188 12.433594 7.40625 12.789062 7.828125 C 12.996094 8.613281 12.421875 8.019531 12.09375 7.941406 C 11.601562 7.6875 11.097656 7.832031 10.621094 8.003906 C 10.609375 7.632812 10.957031 7.390625 11.289062 7.320312 Z M 11.289062 7.320312 "/>
<path style=" stroke:none;fill-rule:nonzero;fill:rgb(95.686275%,74.509805%,31.764707%);fill-opacity:1;" d="M 6.816406 7.375 C 7.316406 8.15625 8.195312 8.707031 9.136719 8.71875 C 9.3125 9.125 9.035156 9.695312 9.058594 10.152344 C 8.808594 10.632812 8.601562 11.136719 8.425781 11.648438 C 8.140625 11.621094 7.855469 11.59375 7.566406 11.566406 C 7.292969 11.582031 6.734375 11.40625 6.59375 11.582031 C 6.949219 11.835938 7.523438 11.796875 7.96875 11.914062 C 8.308594 11.871094 8.421875 12.011719 8.308594 12.335938 C 8.277344 12.519531 8.300781 12.75 8.125 12.867188 C 7.625 13 7.027344 13.050781 6.640625 13.433594 C 7.082031 13.4375 7.511719 13.296875 7.949219 13.246094 C 8.066406 13.25 8.1875 13.25 8.304688 13.246094 C 8.675781 14.476562 9.738281 15.484375 10.886719 16.117188 C 9.585938 16.773438 8.394531 17.714844 7.671875 19.003906 C 7.578125 19.125 7.527344 19.324219 7.375 19.386719 C 6.382812 17.40625 5.828125 15.230469 5.566406 13.042969 C 5.585938 12.894531 5.578125 12.75 5.539062 12.613281 C 5.53125 12.582031 5.515625 12.515625 5.511719 12.484375 C 5.503906 12.261719 5.507812 12.039062 5.46875 11.820312 C 5.453125 11.460938 5.378906 11.109375 5.375 10.753906 C 5.378906 9.8125 5.375 8.875 5.375 7.933594 C 5.574219 7.484375 6.410156 7.597656 6.816406 7.375 Z M 6.816406 7.375 "/>
<path style=" stroke:none;fill-rule:nonzero;fill:rgb(85.882354%,61.56863%,23.529412%);fill-opacity:1;" d="M 24.804688 7.453125 C 25.25 7.410156 25.726562 7.660156 26.175781 7.769531 C 26.476562 8.808594 26.222656 10.09375 26.285156 11.226562 C 26.296875 11.457031 26.308594 11.6875 26.320312 11.917969 C 26.132812 14.214844 25.652344 16.492188 24.757812 18.617188 C 24.734375 18.636719 24.683594 18.675781 24.65625 18.695312 C 24.320312 16.84375 22.332031 16.175781 20.910156 15.296875 C 21.828125 14.417969 22.609375 13.292969 22.671875 11.984375 C 22.703125 11.695312 22.753906 11.402344 22.679688 11.117188 C 22.613281 10.320312 22.359375 9.558594 22.207031 8.78125 C 23.246094 8.808594 24.210938 8.292969 24.804688 7.453125 Z M 24.804688 7.453125 "/>
<path style=" stroke:none;fill-rule:nonzero;fill:rgb(28.627452%,32.156864%,35.294119%);fill-opacity:1;" d="M 20.417969 7.796875 C 20.644531 8.210938 21.078125 8.398438 21.480469 8.601562 C 21.878906 9.890625 22.277344 11.242188 21.960938 12.597656 C 21.464844 14.570312 19.542969 15.761719 17.722656 16.371094 C 16.667969 16.691406 15.546875 16.796875 14.445312 16.757812 C 15.15625 16.585938 15.820312 16.273438 16.523438 16.089844 C 17.742188 15.890625 18.902344 15.335938 19.828125 14.511719 C 20.871094 13.511719 21.503906 12.003906 21.261719 10.550781 C 21.191406 9.570312 20.652344 8.730469 20.417969 7.796875 Z M 20.417969 7.796875 "/>
<path style=" stroke:none;fill-rule:nonzero;fill:rgb(83.92157%,67.450982%,38.82353%);fill-opacity:1;" d="M 26.285156 11.226562 C 26.222656 10.09375 26.476562 8.808594 26.175781 7.769531 C 26.398438 7.777344 26.394531 7.980469 26.394531 8.171875 C 26.351562 8.972656 26.363281 9.773438 26.382812 10.574219 C 26.371094 10.78125 26.363281 10.992188 26.355469 11.199219 Z M 26.285156 11.226562 "/>
<path style=" stroke:none;fill-rule:nonzero;fill:rgb(50.980395%,41.176471%,20.784314%);fill-opacity:1;" d="M 27.03125 7.789062 C 27.105469 8.800781 27.097656 9.820312 27.023438 10.832031 C 27 9.816406 26.992188 8.800781 27.03125 7.789062 Z M 27.03125 7.789062 "/>
<path style=" stroke:none;fill-rule:nonzero;fill:rgb(54.11765%,43.921569%,23.529412%);fill-opacity:1;" d="M 5.316406 7.9375 L 5.375 7.933594 C 5.375 8.875 5.378906 9.8125 5.375 10.753906 C 5.234375 9.933594 5.339844 8.859375 5.316406 7.9375 Z M 5.316406 7.9375 "/>
<path style=" stroke:none;fill-rule:nonzero;fill:rgb(38.82353%,33.725491%,33.725491%);fill-opacity:1;" d="M 8.832031 8.066406 C 9.039062 8.066406 9.246094 8.0625 9.453125 8.058594 C 9.273438 8.179688 9.066406 8.179688 8.832031 8.066406 Z M 8.832031 8.066406 "/>
<path style=" stroke:none;fill-rule:nonzero;fill:rgb(52.941179%,45.09804%,45.882353%);fill-opacity:1;" d="M 21.886719 8.125 C 22.144531 8.128906 22.398438 8.128906 22.65625 8.125 C 22.589844 8.214844 21.964844 8.292969 21.886719 8.125 Z M 21.886719 8.125 "/>
<path style=" stroke:none;fill-rule:nonzero;fill:rgb(66.274512%,54.901963%,35.686275%);fill-opacity:1;" d="M 26.394531 8.171875 C 26.464844 8.972656 26.453125 9.777344 26.382812 10.574219 C 26.363281 9.773438 26.351562 8.972656 26.394531 8.171875 Z M 26.394531 8.171875 "/>
<use xlink:href="#surface14" mask="url(#mask3)"/>
<path style=" stroke:none;fill-rule:nonzero;fill:rgb(25.098041%,30.19608%,32.941177%);fill-opacity:1;" d="M 10.1875 9.28125 C 10.355469 9.21875 11.121094 9.101562 11.328125 9.28125 C 10.949219 9.28125 10.570312 9.28125 10.1875 9.28125 Z M 10.1875 9.28125 "/>
<path style=" stroke:none;fill-rule:nonzero;fill:rgb(9.411765%,13.725491%,16.862746%);fill-opacity:1;" d="M 16.921875 9.246094 C 17.480469 9.203125 18.046875 9.199219 18.609375 9.226562 C 18.902344 9.484375 18.40625 9.597656 18.414062 9.847656 C 18.289062 11.175781 16.488281 11.523438 15.617188 10.6875 C 15.21875 10.394531 15.394531 9.773438 14.988281 9.519531 C 14.972656 9.441406 14.96875 9.363281 14.976562 9.28125 C 15.621094 9.265625 16.273438 9.308594 16.921875 9.246094 M 15.550781 9.726562 C 15.558594 10.226562 16 10.726562 16.511719 10.753906 C 16.722656 10.871094 16.9375 10.871094 17.152344 10.753906 C 17.683594 10.707031 18.066406 10.171875 18.117188 9.667969 C 17.863281 9.65625 17.609375 9.65625 17.355469 9.667969 C 17.230469 9.832031 17.292969 10.132812 17.046875 10.203125 C 16.726562 10.355469 16.425781 10.085938 16.375 9.785156 C 16.386719 9.507812 15.632812 9.671875 15.550781 9.726562 Z M 15.550781 9.726562 "/>
<path style=" stroke:none;fill-rule:nonzero;fill:rgb(9.411765%,13.725491%,16.470589%);fill-opacity:1;" d="M 10.1875 9.28125 C 10.570312 9.28125 10.949219 9.28125 11.328125 9.28125 C 12.027344 9.289062 12.726562 9.261719 13.425781 9.289062 C 13.582031 9.46875 13.421875 9.640625 13.273438 9.75 C 13.191406 10.054688 13.171875 10.402344 12.925781 10.628906 C 13.285156 10.65625 13.777344 10.542969 14.085938 10.75 C 14 10.761719 13.832031 10.785156 13.746094 10.796875 C 12.941406 10.875 12.207031 11.273438 11.578125 11.761719 C 11.625 11.773438 11.714844 11.789062 11.757812 11.800781 C 12.230469 11.921875 12.71875 12.226562 12.90625 12.695312 C 13.070312 13.421875 12.441406 14.007812 11.820312 14.257812 C 11.6875 14.304688 11.941406 14.449219 11.96875 14.460938 C 12.414062 14.726562 12.910156 14.878906 13.421875 14.933594 C 13.773438 14.980469 14.136719 15.007812 14.484375 14.9375 C 15.570312 14.855469 16.210938 13.867188 17.148438 13.488281 C 17.058594 13.339844 16.675781 13.066406 17.28125 13.246094 C 17.6875 13.269531 18.011719 13.871094 17.6875 14.140625 C 17.609375 13.996094 17.566406 13.75 17.351562 13.824219 C 16.464844 14.351562 15.734375 15.203125 14.675781 15.378906 C 14.753906 16.542969 12.984375 16.730469 12.546875 15.808594 C 12.363281 15.644531 12.527344 15.316406 12.332031 15.195312 C 11.824219 15.070312 11.394531 14.726562 11.113281 14.296875 C 10.371094 14.042969 9.785156 13.195312 10.039062 12.410156 C 10.214844 11.816406 10.984375 11.945312 11.25 11.441406 C 11.367188 11.273438 11.550781 11.183594 11.726562 11.089844 C 11.03125 11.109375 10.433594 10.523438 10.382812 9.847656 C 10.402344 9.628906 9.972656 9.464844 10.1875 9.28125 M 10.742188 9.917969 C 10.929688 11.148438 12.9375 10.929688 12.980469 9.726562 C 12.984375 9.617188 12.460938 9.621094 12.503906 9.730469 C 12.460938 9.9375 12.367188 10.136719 12.160156 10.214844 C 12.085938 10.125 11.914062 10.125 11.839844 10.214844 C 11.660156 10.109375 11.585938 9.90625 11.496094 9.730469 C 11.453125 9.566406 10.394531 9.570312 10.742188 9.917969 M 10.855469 12.328125 C 10.59375 12.445312 10.339844 12.84375 10.566406 13.074219 C 10.621094 13.640625 11.390625 13.949219 11.882812 13.675781 C 12.109375 13.488281 12.449219 13.140625 12.359375 12.863281 C 12.148438 12.300781 11.367188 12.175781 10.855469 12.328125 M 12.804688 15.355469 C 12.871094 15.664062 13.089844 16.027344 13.453125 16.003906 C 13.460938 16.117188 13.738281 16.117188 13.746094 16.003906 C 14.027344 15.992188 14.257812 15.707031 14.207031 15.429688 C 13.871094 15.359375 13.636719 15.476562 13.453125 15.679688 C 13.535156 15.292969 13.027344 15.414062 12.804688 15.355469 Z M 12.804688 15.355469 "/>
<path style=" stroke:none;fill-rule:nonzero;fill:rgb(58.431375%,61.176473%,62.352943%);fill-opacity:1;" d="M 10.742188 9.917969 C 10.394531 9.570312 11.453125 9.566406 11.496094 9.730469 C 11.28125 9.824219 10.691406 9.515625 10.742188 9.917969 Z M 10.742188 9.917969 "/>
<path style=" stroke:none;fill-rule:nonzero;fill:rgb(34.117648%,38.039216%,40.392157%);fill-opacity:1;" d="M 12.503906 9.730469 C 12.460938 9.621094 12.984375 9.617188 12.980469 9.726562 C 12.820312 9.726562 12.660156 9.730469 12.503906 9.730469 Z M 12.503906 9.730469 "/>
<path style=" stroke:none;fill-rule:nonzero;fill:rgb(41.176471%,43.529412%,45.490196%);fill-opacity:1;" d="M 15.550781 9.726562 C 15.632812 9.671875 16.386719 9.507812 16.375 9.785156 C 16.101562 9.734375 15.824219 9.730469 15.550781 9.726562 Z M 15.550781 9.726562 "/>
<path style=" stroke:none;fill-rule:nonzero;fill:rgb(85.882354%,85.882354%,85.09804%);fill-opacity:1;" d="M 17.355469 9.667969 C 17.609375 9.65625 17.863281 9.65625 18.117188 9.667969 C 18.066406 10.171875 17.683594 10.707031 17.152344 10.753906 C 16.9375 10.753906 16.726562 10.753906 16.511719 10.753906 C 16 10.726562 15.558594 10.226562 15.550781 9.726562 C 15.824219 9.730469 16.101562 9.734375 16.375 9.785156 C 16.425781 10.085938 16.726562 10.355469 17.046875 10.203125 C 17.292969 10.132812 17.230469 9.832031 17.355469 9.667969 Z M 17.355469 9.667969 "/>
<path style=" stroke:none;fill-rule:nonzero;fill:rgb(85.882354%,86.274511%,85.490197%);fill-opacity:1;" d="M 10.742188 9.917969 C 10.691406 9.515625 11.28125 9.824219 11.496094 9.730469 C 11.585938 9.90625 11.660156 10.109375 11.839844 10.214844 C 11.917969 10.214844 12.078125 10.214844 12.160156 10.214844 C 12.367188 10.136719 12.460938 9.9375 12.503906 9.730469 C 12.660156 9.730469 12.820312 9.726562 12.980469 9.726562 C 12.9375 10.929688 10.929688 11.148438 10.742188 9.917969 Z M 10.742188 9.917969 "/>
<use xlink:href="#surface17" mask="url(#mask4)"/>
<path style=" stroke:none;fill-rule:nonzero;fill:rgb(49.019608%,39.215687%,18.431373%);fill-opacity:1;" d="M 4.671875 9.984375 C 4.8125 10.246094 4.738281 10.78125 4.707031 11.15625 C 4.648438 10.769531 4.671875 10.375 4.671875 9.984375 Z M 4.671875 9.984375 "/>
<path style=" stroke:none;fill-rule:nonzero;fill:rgb(40.000001%,42.352942%,43.529412%);fill-opacity:1;" d="M 11.839844 10.214844 C 11.914062 10.125 12.085938 10.125 12.160156 10.214844 C 12.078125 10.214844 11.917969 10.214844 11.839844 10.214844 Z M 11.839844 10.214844 "/>
<use xlink:href="#surface20" mask="url(#mask5)"/>
<path style=" stroke:none;fill-rule:nonzero;fill:rgb(57.647061%,59.607846%,60.784316%);fill-opacity:1;" d="M 16.511719 10.753906 C 16.726562 10.753906 16.9375 10.753906 17.152344 10.753906 C 16.9375 10.871094 16.722656 10.871094 16.511719 10.753906 Z M 16.511719 10.753906 "/>
<path style=" stroke:none;fill-rule:nonzero;fill:rgb(54.901963%,58.039218%,60.392159%);fill-opacity:1;" d="M 11.578125 11.761719 C 12.207031 11.273438 12.941406 10.875 13.746094 10.796875 C 13.765625 10.8125 13.800781 10.84375 13.820312 10.859375 C 13.066406 11.027344 12.464844 11.527344 11.757812 11.800781 C 11.714844 11.789062 11.625 11.773438 11.578125 11.761719 Z M 11.578125 11.761719 "/>
<path style=" stroke:none;fill-rule:nonzero;fill:rgb(62.7451%,52.156866%,32.549021%);fill-opacity:1;" d="M 28.300781 11.789062 C 28.289062 11.484375 28.28125 11.171875 28.347656 10.867188 C 28.347656 11.175781 28.339844 11.484375 28.300781 11.789062 Z M 28.300781 11.789062 "/>
<path style=" stroke:none;fill-rule:nonzero;fill:rgb(49.019608%,37.254903%,20%);fill-opacity:1;" d="M 22.679688 11.117188 C 22.753906 11.402344 22.703125 11.695312 22.671875 11.984375 C 22.671875 11.695312 22.671875 11.40625 22.679688 11.117188 Z M 22.679688 11.117188 "/>
<path style=" stroke:none;fill-rule:nonzero;fill:rgb(56.078434%,45.882353%,28.235295%);fill-opacity:1;" d="M 3.417969 11.179688 C 3.453125 11.355469 3.453125 11.53125 3.457031 11.710938 C 3.308594 11.652344 3.421875 11.335938 3.417969 11.179688 Z M 3.417969 11.179688 "/>
<path style=" stroke:none;fill-rule:nonzero;fill:rgb(43.137255%,34.117648%,15.294118%);fill-opacity:1;" d="M 26.285156 11.226562 L 26.355469 11.199219 C 26.355469 11.441406 26.34375 11.679688 26.320312 11.917969 C 26.308594 11.6875 26.296875 11.457031 26.285156 11.226562 Z M 26.285156 11.226562 "/>
<path style=" stroke:none;fill-rule:nonzero;fill:rgb(64.313728%,52.941179%,32.549021%);fill-opacity:1;" d="M 26.957031 12.113281 C 26.953125 11.824219 26.953125 11.535156 26.996094 11.25 C 27 11.535156 27 11.824219 26.957031 12.113281 Z M 26.957031 12.113281 "/>
<use xlink:href="#surface23" mask="url(#mask6)"/>
<use xlink:href="#surface26" mask="url(#mask7)"/>
<path style=" stroke:none;fill-rule:nonzero;fill:rgb(42.745098%,32.156864%,12.156863%);fill-opacity:1;" d="M 6.59375 11.582031 C 6.734375 11.40625 7.292969 11.582031 7.566406 11.566406 C 7.242188 11.574219 6.917969 11.585938 6.59375 11.582031 Z M 6.59375 11.582031 "/>
<path style=" stroke:none;fill-rule:nonzero;fill:rgb(19.607843%,14.509805%,4.313726%);fill-opacity:1;" d="M 6.59375 11.582031 C 6.917969 11.585938 7.242188 11.574219 7.566406 11.566406 C 7.855469 11.59375 8.140625 11.621094 8.425781 11.648438 C 8.488281 11.773438 7.949219 11.613281 7.96875 11.914062 C 7.523438 11.796875 6.949219 11.835938 6.59375 11.582031 Z M 6.59375 11.582031 "/>
<path style=" stroke:none;fill-rule:nonzero;fill:rgb(9.019608%,12.941177%,15.686275%);fill-opacity:1;" d="M 18.710938 11.808594 C 19.023438 11.832031 19.4375 11.75 19.664062 12.023438 C 18.28125 11.925781 16.96875 12.492188 15.609375 12.539062 C 16.496094 11.972656 17.660156 11.890625 18.710938 11.808594 Z M 18.710938 11.808594 "/>
<path style=" stroke:none;fill-rule:nonzero;fill:rgb(59.607846%,49.803922%,30.19608%);fill-opacity:1;" d="M 5.46875 11.820312 C 5.507812 12.039062 5.503906 12.261719 5.511719 12.484375 C 5.3125 12.417969 5.476562 12.007812 5.46875 11.820312 Z M 5.46875 11.820312 "/>
<use xlink:href="#surface29" mask="url(#mask8)"/>
<use xlink:href="#surface32" mask="url(#mask9)"/>
<path style=" stroke:none;fill-rule:nonzero;fill:rgb(50.196081%,42.352942%,22.745098%);fill-opacity:1;" d="M 4.796875 12.226562 C 4.945312 12.28125 4.832031 12.59375 4.851562 12.75 C 4.765625 12.585938 4.800781 12.398438 4.796875 12.226562 Z M 4.796875 12.226562 "/>
<path style=" stroke:none;fill-rule:nonzero;fill:rgb(83.529413%,64.313728%,59.607846%);fill-opacity:1;" d="M 10.855469 12.328125 C 11.367188 12.175781 12.148438 12.300781 12.359375 12.863281 C 11.988281 12.703125 11.429688 12.101562 11.042969 12.515625 C 10.847656 12.664062 10.675781 12.847656 10.566406 13.074219 C 10.339844 12.84375 10.59375 12.445312 10.855469 12.328125 Z M 10.855469 12.328125 "/>
<path style=" stroke:none;fill-rule:nonzero;fill:rgb(61.176473%,50.980395%,31.764707%);fill-opacity:1;" d="M 8.125 12.867188 C 8.300781 12.75 8.277344 12.519531 8.308594 12.335938 C 8.285156 12.535156 8.457031 12.949219 8.125 12.867188 Z M 8.125 12.867188 "/>
<path style=" stroke:none;fill-rule:nonzero;fill:rgb(76.862746%,50.588238%,42.745098%);fill-opacity:1;" d="M 11.042969 12.515625 C 11.429688 12.101562 11.988281 12.703125 12.359375 12.863281 C 12.449219 13.140625 12.109375 13.488281 11.882812 13.675781 C 11.390625 13.949219 10.621094 13.640625 10.566406 13.074219 C 10.675781 12.847656 10.847656 12.664062 11.042969 12.515625 Z M 11.042969 12.515625 "/>
<path style=" stroke:none;fill-rule:nonzero;fill:rgb(47.058824%,36.862746%,19.215687%);fill-opacity:1;" d="M 5.539062 12.613281 C 5.578125 12.75 5.585938 12.894531 5.566406 13.042969 C 5.425781 12.988281 5.46875 12.722656 5.539062 12.613281 Z M 5.539062 12.613281 "/>
<path style=" stroke:none;fill-rule:nonzero;fill:rgb(8.627451%,12.941177%,16.078432%);fill-opacity:1;" d="M 21.960938 12.597656 C 22.503906 12.53125 22.191406 13.007812 22.140625 13.320312 C 21.78125 14.058594 21.148438 14.601562 20.742188 15.304688 C 20.734375 15.515625 21.015625 15.589844 21.136719 15.722656 C 22.285156 16.359375 23.535156 16.980469 24.25 18.113281 C 24.363281 18.230469 24.386719 18.90625 24.65625 18.695312 C 24.683594 18.675781 24.734375 18.636719 24.757812 18.617188 C 25.1875 18.957031 24.894531 19.460938 24.59375 19.792969 C 24.832031 20.585938 24.445312 21.363281 24.554688 22.152344 C 24.585938 22.367188 24.414062 22.664062 24.691406 22.746094 L 24.699219 22.804688 C 24.816406 23.3125 24.925781 22.457031 25.195312 22.558594 C 25.535156 22.667969 25.085938 22.261719 25.296875 22.164062 C 25.808594 21.808594 25.835938 21.101562 26.257812 20.6875 C 26.394531 20.707031 26.601562 20.703125 26.652344 20.863281 C 24.484375 25.300781 20.636719 28.898438 16.113281 30.847656 C 16.007812 30.847656 15.800781 30.847656 15.695312 30.847656 C 13.59375 29.953125 11.625 28.726562 9.917969 27.203125 C 9.628906 26.988281 9.433594 26.648438 9.085938 26.527344 C 8.992188 26.519531 8.808594 26.503906 8.714844 26.496094 C 8.191406 26.472656 7.609375 26.300781 7.207031 25.976562 C 7.292969 25.835938 7.398438 25.710938 7.507812 25.589844 C 8.921875 26.253906 10.574219 26.152344 12.03125 25.660156 C 12.847656 25.535156 12.121094 24.554688 11.730469 24.367188 C 11.503906 24.113281 11.570312 23.691406 11.25 23.503906 C 10.585938 23.117188 9.878906 22.753906 9.097656 22.707031 C 8.792969 22.628906 8.421875 22.753906 8.167969 22.53125 C 8.652344 22.136719 9.09375 21.683594 9.558594 21.269531 C 9.582031 20.578125 9.488281 19.742188 9.855469 19.140625 C 10.023438 19.605469 9.867188 20.378906 10.125 20.925781 C 10.378906 20.886719 10.625 20.8125 10.882812 20.785156 C 10.699219 20.035156 10.125 19.242188 10.558594 18.503906 C 9.894531 18.21875 10.324219 17.660156 10.496094 17.207031 C 10.609375 17.078125 10.71875 16.9375 10.765625 16.769531 C 10.085938 17.09375 9.480469 17.558594 8.976562 18.121094 C 8.621094 17.800781 9.109375 17.746094 9.234375 17.484375 C 9.777344 17.015625 10.472656 16.742188 10.996094 16.238281 C 11.007812 16.15625 11.039062 16.039062 10.960938 15.980469 C 10.433594 15.457031 9.699219 15.164062 9.277344 14.535156 C 9.363281 14.472656 9.457031 14.429688 9.554688 14.394531 C 10.082031 14.976562 10.742188 15.457031 11.496094 15.703125 C 12.019531 15.847656 12.355469 16.332031 12.863281 16.511719 C 13.367188 16.695312 13.910156 16.777344 14.445312 16.757812 C 15.546875 16.796875 16.667969 16.691406 17.722656 16.371094 C 19.542969 15.761719 21.464844 14.570312 21.960938 12.597656 M 20.179688 15.828125 C 19.773438 16.042969 19.371094 16.296875 19.164062 16.726562 C 18.175781 18.304688 17.132812 19.851562 16.234375 21.484375 C 16.164062 21.625 16.070312 21.757812 16.132812 21.9375 C 16.765625 22.230469 17.136719 21.402344 17.667969 21.1875 C 18.523438 20.785156 18.976562 19.890625 19.699219 19.3125 C 19.769531 18.949219 19.289062 18.71875 19.277344 18.382812 C 19.589844 18.003906 20.214844 18.191406 20.53125 17.84375 C 20.550781 17.191406 20.601562 16.519531 20.398438 15.890625 C 20.367188 15.792969 20.257812 15.789062 20.179688 15.828125 M 20.992188 16.253906 C 21.078125 16.777344 21.042969 17.304688 21.074219 17.832031 C 21.070312 18.386719 20.398438 18.335938 20.035156 18.570312 C 19.972656 18.835938 20.25 19.015625 20.289062 19.261719 C 20.074219 19.738281 19.476562 19.96875 19.320312 20.476562 C 19.621094 20.4375 20.070312 20.636719 20.226562 20.289062 C 20.59375 19.679688 20.910156 18.964844 21.578125 18.621094 C 21.335938 19.191406 20.972656 19.714844 20.742188 20.292969 C 20.648438 20.5625 21.003906 20.546875 21.167969 20.636719 C 21.742188 20.796875 22.148438 21.652344 21.644531 22.09375 C 21.261719 22.390625 21.601562 23.109375 21.070312 23.308594 C 20.589844 23.234375 20.617188 23.9375 20.160156 23.933594 C 19.636719 23.753906 19.8125 24.285156 19.828125 24.527344 C 19.511719 24.164062 19.257812 23.644531 18.742188 23.558594 C 18.660156 23.472656 18.5625 23.414062 18.441406 23.425781 C 17.402344 22.800781 16.136719 22.691406 15.023438 22.230469 C 14.703125 22.164062 14.191406 21.84375 13.917969 22.167969 C 13.300781 22.65625 12.695312 23.675781 12.976562 24.527344 C 14.765625 25.582031 16.75 26.371094 18.824219 26.613281 C 20.074219 26.75 21.296875 26.085938 21.996094 25.066406 C 23.171875 23.449219 23.804688 21.464844 23.902344 19.476562 C 23.9375 18.667969 23.640625 17.773438 22.90625 17.351562 C 22.273438 16.988281 21.683594 16.453125 20.992188 16.253906 M 10.691406 18 L 10.753906 17.996094 C 10.964844 18.164062 11.1875 18.335938 11.328125 18.566406 C 11.324219 18.855469 10.78125 18.90625 10.835938 19.242188 C 11.042969 19.78125 11.144531 20.367188 11.46875 20.851562 C 11.824219 20.945312 12.1875 21.035156 12.546875 21.125 C 12.347656 19.753906 11.859375 18.421875 11.835938 17.023438 C 11.832031 16.875 11.859375 16.488281 11.59375 16.578125 C 11.046875 16.769531 10.949219 17.527344 10.691406 18 M 15.574219 17.300781 C 15.355469 17.386719 15.761719 17.648438 15.847656 17.707031 C 16.253906 18.167969 16.625 18.667969 17.082031 19.074219 C 17.390625 18.601562 17.699219 18.132812 17.996094 17.65625 C 18.25 17.367188 18.445312 16.980469 18.625 16.632812 C 17.640625 16.984375 16.621094 17.269531 15.574219 17.300781 M 12.351562 16.839844 C 12.386719 16.949219 12.230469 17.46875 12.398438 17.320312 C 12.433594 17.757812 12.480469 18.195312 12.554688 18.628906 C 12.90625 18.3125 13.226562 17.953125 13.523438 17.582031 C 13.671875 17.574219 13.742188 17.398438 13.820312 17.292969 C 13.320312 17.171875 12.808594 17.089844 12.351562 16.839844 M 13.835938 17.992188 C 13.625 18.257812 13.984375 18.980469 14.324219 19.132812 C 13.78125 19.304688 13.875 19.992188 13.640625 20.414062 C 13.769531 20.757812 13.140625 21.210938 13.5625 21.429688 C 14.167969 21.527344 14.761719 21.6875 15.359375 21.824219 C 15.246094 21.011719 15.101562 20.203125 14.96875 19.394531 C 14.972656 19.296875 14.898438 19.222656 14.859375 19.144531 C 14.964844 19.078125 15.222656 19.125 15.15625 18.9375 C 15.273438 18.644531 15.609375 18.421875 15.53125 18.070312 C 15.296875 17.824219 15.121094 17.449219 14.785156 17.339844 C 14.414062 17.445312 14.085938 17.703125 13.835938 17.992188 M 13.292969 18.542969 C 12.992188 18.878906 12.355469 19.257812 12.726562 19.699219 C 12.816406 20.160156 12.992188 20.601562 13.074219 21.0625 C 13.179688 20.992188 13.183594 20.867188 13.214844 20.757812 C 13.339844 20.027344 13.992188 19.253906 13.484375 18.539062 C 13.585938 18.351562 13.347656 18.453125 13.292969 18.542969 M 15.953125 18.570312 C 15.664062 18.878906 15.226562 19.332031 15.480469 19.710938 C 15.480469 19.886719 15.542969 20.058594 15.585938 20.226562 C 15.503906 20.316406 15.476562 20.574219 15.621094 20.597656 C 15.722656 20.785156 15.550781 21.34375 15.789062 21.292969 C 16.0625 20.757812 16.398438 20.257812 16.652344 19.714844 C 16.976562 19.28125 16.203125 18.882812 15.953125 18.570312 M 17.085938 22.3125 C 17.578125 22.433594 18.039062 22.703125 18.5625 22.65625 C 19.160156 22.683594 19.445312 23.367188 19.984375 23.421875 C 20.269531 23.480469 20.378906 23.113281 20.230469 22.90625 C 20.03125 22.363281 19.433594 22.199219 19.054688 21.828125 C 19.757812 21.84375 20.453125 22.300781 20.679688 22.976562 C 21.058594 22.839844 21.109375 22.304688 20.851562 22.027344 C 20.582031 21.769531 20.246094 21.59375 19.917969 21.421875 C 19.828125 21.128906 20.417969 21.398438 20.546875 21.433594 C 20.84375 21.472656 20.980469 21.769531 21.234375 21.882812 C 21.6875 21.464844 21.113281 20.851562 20.609375 20.917969 C 19.292969 20.742188 17.972656 21.363281 17.085938 22.3125 M 9.902344 21.765625 C 9.734375 21.894531 9.460938 21.976562 9.402344 22.195312 C 10.21875 22.246094 10.9375 22.644531 11.632812 23.03125 C 11.785156 22.546875 12.050781 22.105469 12.421875 21.761719 C 12.554688 21.804688 12.464844 21.570312 12.359375 21.617188 C 11.566406 21.441406 10.578125 21.222656 9.902344 21.765625 M 12.644531 22.183594 C 12.242188 22.617188 11.671875 23.535156 12.300781 24.011719 C 12.382812 24.183594 12.503906 23.882812 12.386719 23.8125 C 12.546875 23.109375 12.894531 22.480469 13.371094 21.953125 C 13.1875 21.660156 12.785156 21.9375 12.644531 22.183594 M 10.492188 26.632812 C 10.699219 27.039062 11.195312 27.292969 11.566406 27.570312 C 12.875 28.621094 14.363281 29.425781 15.878906 30.140625 C 16.929688 29.710938 17.925781 29.109375 18.894531 28.503906 C 19.382812 28.226562 19.921875 27.851562 20.363281 27.457031 C 20.195312 27.457031 20.023438 27.460938 19.855469 27.476562 C 19.632812 27.445312 19.40625 27.460938 19.183594 27.472656 C 18.8125 27.441406 18.445312 27.335938 18.070312 27.347656 C 17.714844 27.546875 17.34375 27.742188 17.019531 27.972656 C 16.625 28.132812 16.265625 28.402344 15.878906 28.539062 C 14.945312 28.09375 14.058594 27.5625 13.191406 27.007812 C 12.925781 26.761719 12.5625 26.605469 12.28125 26.371094 C 11.6875 26.472656 11.097656 26.621094 10.492188 26.632812 Z M 10.492188 26.632812 "/>
<use xlink:href="#surface35" mask="url(#mask10)"/>
<use xlink:href="#surface38" mask="url(#mask11)"/>
<path style=" stroke:none;fill-rule:nonzero;fill:rgb(10.980392%,14.509805%,17.254902%);fill-opacity:1;" d="M 16.410156 12.894531 C 17.519531 12.785156 18.703125 12.921875 19.695312 13.460938 C 19.789062 13.632812 19.570312 13.558594 19.476562 13.542969 C 18.464844 13.214844 17.394531 13.121094 16.339844 13.097656 C 16.097656 13.066406 16.210938 12.863281 16.410156 12.894531 Z M 16.410156 12.894531 "/>
<path style=" stroke:none;fill-rule:nonzero;fill:rgb(61.176473%,50.980395%,30.588236%);fill-opacity:1;" d="M 7.949219 13.246094 C 7.980469 13.128906 8.277344 13.128906 8.304688 13.246094 C 8.1875 13.25 8.066406 13.25 7.949219 13.246094 Z M 7.949219 13.246094 "/>
<use xlink:href="#surface41" mask="url(#mask12)"/>
<use xlink:href="#surface44" mask="url(#mask13)"/>
<path style=" stroke:none;fill-rule:nonzero;fill:rgb(53.333336%,45.09804%,25.098041%);fill-opacity:1;" d="M 26.582031 14.792969 C 26.535156 14.683594 26.519531 14.546875 26.613281 14.460938 C 26.648438 14.570312 26.65625 14.695312 26.582031 14.792969 Z M 26.582031 14.792969 "/>
<path style=" stroke:none;fill-rule:nonzero;fill:rgb(27.450982%,31.37255%,34.117648%);fill-opacity:1;" d="M 13.421875 14.933594 C 13.773438 14.917969 14.132812 14.882812 14.484375 14.9375 C 14.136719 15.007812 13.773438 14.980469 13.421875 14.933594 Z M 13.421875 14.933594 "/>
<path style=" stroke:none;fill-rule:nonzero;fill:rgb(85.09804%,86.274511%,85.882354%);fill-opacity:1;" d="M 12.804688 15.355469 C 13.027344 15.414062 13.535156 15.292969 13.453125 15.679688 C 13.636719 15.476562 13.871094 15.359375 14.207031 15.429688 C 14.257812 15.707031 14.027344 15.992188 13.746094 16.003906 C 13.648438 16 13.550781 16 13.453125 16.003906 C 13.089844 16.027344 12.871094 15.664062 12.804688 15.355469 Z M 12.804688 15.355469 "/>
<path style=" stroke:none;fill-rule:nonzero;fill:rgb(14.509805%,19.215687%,23.921569%);fill-opacity:1;" d="M 20.179688 15.828125 C 20.257812 15.789062 20.367188 15.792969 20.398438 15.890625 C 20.601562 16.519531 20.550781 17.191406 20.53125 17.84375 C 20.214844 18.191406 19.589844 18.003906 19.277344 18.382812 C 19.289062 18.71875 19.769531 18.949219 19.699219 19.3125 C 18.976562 19.890625 18.523438 20.785156 17.667969 21.1875 C 17.136719 21.402344 16.765625 22.230469 16.132812 21.9375 C 16.070312 21.757812 16.164062 21.625 16.234375 21.484375 C 17.132812 19.851562 18.175781 18.304688 19.164062 16.726562 C 19.371094 16.296875 19.773438 16.042969 20.179688 15.828125 Z M 20.179688 15.828125 "/>
<path style=" stroke:none;fill-rule:nonzero;fill:rgb(53.725493%,56.862748%,58.823532%);fill-opacity:1;" d="M 13.453125 16.003906 C 13.550781 16 13.648438 16 13.746094 16.003906 C 13.738281 16.117188 13.460938 16.117188 13.453125 16.003906 Z M 13.453125 16.003906 "/>
<path style=" stroke:none;fill-rule:nonzero;fill:rgb(14.901961%,19.607843%,24.313726%);fill-opacity:1;" d="M 20.992188 16.253906 C 21.683594 16.453125 22.273438 16.988281 22.90625 17.351562 C 23.640625 17.773438 23.9375 18.667969 23.902344 19.476562 C 23.804688 21.464844 23.171875 23.449219 21.996094 25.066406 C 21.296875 26.085938 20.074219 26.75 18.824219 26.613281 C 16.75 26.371094 14.765625 25.582031 12.976562 24.527344 C 12.695312 23.675781 13.300781 22.65625 13.917969 22.167969 C 14.441406 22.421875 15.042969 22.511719 15.613281 22.660156 C 16.570312 22.847656 17.480469 23.257812 18.441406 23.425781 C 18.5625 23.414062 18.660156 23.472656 18.742188 23.558594 C 19.136719 23.890625 19.523438 24.246094 19.792969 24.691406 C 20.238281 24.847656 19.695312 24.085938 20.023438 24.054688 C 20.558594 24.148438 20.628906 23.589844 21.015625 23.441406 C 21.542969 23.332031 21.503906 22.757812 21.585938 22.347656 C 21.78125 22.074219 22.132812 21.738281 21.964844 21.367188 C 21.8125 20.855469 21.371094 20.511719 20.867188 20.398438 C 21.03125 19.644531 21.636719 19.035156 21.828125 18.296875 C 21.050781 18.671875 20.566406 19.433594 20.183594 20.183594 C 20.074219 20.402344 19.710938 20.476562 19.515625 20.34375 C 19.707031 19.976562 20.078125 19.753906 20.328125 19.429688 C 20.507812 19.15625 20.152344 18.914062 20.160156 18.636719 C 20.480469 18.441406 21.300781 18.433594 21.074219 17.832031 C 21.042969 17.304688 21.078125 16.777344 20.992188 16.253906 Z M 20.992188 16.253906 "/>
<path style=" stroke:none;fill-rule:nonzero;fill:rgb(27.058825%,31.37255%,34.901962%);fill-opacity:1;" d="M 10.691406 18 C 10.949219 17.527344 11.046875 16.769531 11.59375 16.578125 C 11.347656 17.054688 11.164062 17.65625 10.753906 17.996094 Z M 10.691406 18 "/>
<path style=" stroke:none;fill-rule:nonzero;fill:rgb(14.509805%,19.215687%,23.529412%);fill-opacity:1;" d="M 11.59375 16.578125 C 11.859375 16.488281 11.832031 16.875 11.835938 17.023438 C 11.859375 18.421875 12.347656 19.753906 12.546875 21.125 C 12.1875 21.035156 11.824219 20.945312 11.46875 20.851562 C 11.144531 20.367188 11.042969 19.78125 10.835938 19.242188 C 10.78125 18.90625 11.324219 18.855469 11.328125 18.566406 C 11.1875 18.335938 10.964844 18.164062 10.753906 17.996094 C 11.164062 17.65625 11.347656 17.054688 11.59375 16.578125 Z M 11.59375 16.578125 "/>
<path style=" stroke:none;fill-rule:nonzero;fill:rgb(70.980394%,71.764708%,71.764708%);fill-opacity:1;" d="M 15.574219 17.300781 C 16.621094 17.269531 17.640625 16.984375 18.625 16.632812 C 18.445312 16.980469 18.25 17.367188 17.996094 17.65625 C 17.484375 16.984375 16.496094 17.597656 15.847656 17.707031 C 15.761719 17.648438 15.355469 17.386719 15.574219 17.300781 Z M 15.574219 17.300781 "/>
<path style=" stroke:none;fill-rule:nonzero;fill:rgb(27.843139%,31.37255%,34.901962%);fill-opacity:1;" d="M 8.976562 18.121094 C 9.480469 17.558594 10.085938 17.09375 10.765625 16.769531 C 10.71875 16.9375 10.609375 17.078125 10.496094 17.207031 C 9.273438 17.921875 8.402344 19.152344 7.820312 20.421875 C 7.160156 21.738281 6.910156 23.210938 6.734375 24.660156 C 6.484375 23.679688 6.722656 22.652344 6.980469 21.699219 C 7.398438 20.390625 8.050781 19.144531 8.976562 18.121094 Z M 8.976562 18.121094 "/>
<path style=" stroke:none;fill-rule:nonzero;fill:rgb(71.372551%,72.549021%,73.333335%);fill-opacity:1;" d="M 12.351562 16.839844 C 12.808594 17.089844 13.320312 17.171875 13.820312 17.292969 C 13.742188 17.398438 13.671875 17.574219 13.523438 17.582031 C 13.15625 17.527344 12.746094 17.136719 12.398438 17.320312 C 12.230469 17.46875 12.386719 16.949219 12.351562 16.839844 Z M 12.351562 16.839844 "/>
<path style=" stroke:none;fill-rule:nonzero;fill:rgb(14.509805%,19.607843%,23.921569%);fill-opacity:1;" d="M 7.820312 20.421875 C 8.402344 19.152344 9.273438 17.921875 10.496094 17.207031 C 10.324219 17.660156 9.894531 18.21875 10.558594 18.503906 C 10.125 19.242188 10.699219 20.035156 10.882812 20.785156 C 10.625 20.8125 10.378906 20.886719 10.125 20.925781 C 9.867188 20.378906 10.023438 19.605469 9.855469 19.140625 C 9.488281 19.742188 9.582031 20.578125 9.558594 21.269531 C 9.09375 21.683594 8.652344 22.136719 8.167969 22.53125 C 8.421875 22.753906 8.792969 22.628906 9.097656 22.707031 C 9.878906 22.753906 10.585938 23.117188 11.25 23.503906 C 11.570312 23.691406 11.503906 24.113281 11.730469 24.367188 C 12.121094 24.554688 12.847656 25.535156 12.03125 25.660156 C 10.574219 26.152344 8.921875 26.253906 7.507812 25.589844 C 7.199219 25.339844 6.824219 25.070312 6.734375 24.660156 C 6.910156 23.210938 7.160156 21.738281 7.820312 20.421875 Z M 7.820312 20.421875 "/>
<path style=" stroke:none;fill-rule:nonzero;fill:rgb(85.490197%,86.274511%,84.705883%);fill-opacity:1;" d="M 12.398438 17.320312 C 12.746094 17.136719 13.15625 17.527344 13.523438 17.582031 C 13.226562 17.953125 12.90625 18.3125 12.554688 18.628906 C 12.480469 18.195312 12.433594 17.757812 12.398438 17.320312 Z M 12.398438 17.320312 "/>
<path style=" stroke:none;fill-rule:nonzero;fill:rgb(65.098041%,25.490198%,18.431373%);fill-opacity:1;" d="M 13.835938 17.992188 C 14.085938 17.703125 14.414062 17.445312 14.785156 17.339844 C 15.121094 17.449219 15.296875 17.824219 15.53125 18.070312 C 15.609375 18.421875 15.273438 18.644531 15.15625 18.9375 C 14.832031 18.90625 14.460938 19.039062 14.164062 18.863281 C 13.945312 18.632812 13.953125 18.277344 13.835938 17.992188 Z M 13.835938 17.992188 "/>
<path style=" stroke:none;fill-rule:nonzero;fill:rgb(87.058824%,86.666667%,85.09804%);fill-opacity:1;" d="M 15.847656 17.707031 C 16.496094 17.597656 17.484375 16.984375 17.996094 17.65625 C 17.699219 18.132812 17.390625 18.601562 17.082031 19.074219 C 16.625 18.667969 16.253906 18.167969 15.847656 17.707031 Z M 15.847656 17.707031 "/>
<path style=" stroke:none;fill-rule:nonzero;fill:rgb(11.372549%,16.470589%,20.784314%);fill-opacity:1;" d="M 20.035156 18.570312 C 20.398438 18.335938 21.070312 18.386719 21.074219 17.832031 C 21.300781 18.433594 20.480469 18.441406 20.160156 18.636719 C 20.152344 18.914062 20.507812 19.15625 20.328125 19.429688 C 20.078125 19.753906 19.707031 19.976562 19.515625 20.34375 C 19.710938 20.476562 20.074219 20.402344 20.183594 20.183594 C 20.566406 19.433594 21.050781 18.671875 21.828125 18.296875 C 21.636719 19.035156 21.03125 19.644531 20.867188 20.398438 C 21.371094 20.511719 21.8125 20.855469 21.964844 21.367188 C 22.132812 21.738281 21.78125 22.074219 21.585938 22.347656 C 21.503906 22.757812 21.542969 23.332031 21.015625 23.441406 C 20.628906 23.589844 20.558594 24.148438 20.023438 24.054688 C 19.695312 24.085938 20.238281 24.847656 19.792969 24.691406 C 19.523438 24.246094 19.136719 23.890625 18.742188 23.558594 C 19.257812 23.644531 19.511719 24.164062 19.828125 24.527344 C 19.8125 24.285156 19.636719 23.753906 20.160156 23.933594 C 20.617188 23.9375 20.589844 23.234375 21.070312 23.308594 C 21.601562 23.109375 21.261719 22.390625 21.644531 22.09375 C 22.148438 21.652344 21.742188 20.796875 21.167969 20.636719 C 21.003906 20.546875 20.648438 20.5625 20.742188 20.292969 C 20.972656 19.714844 21.335938 19.191406 21.578125 18.621094 C 20.910156 18.964844 20.59375 19.679688 20.226562 20.289062 C 20.070312 20.636719 19.621094 20.4375 19.320312 20.476562 C 19.476562 19.96875 20.074219 19.738281 20.289062 19.261719 C 20.25 19.015625 19.972656 18.835938 20.035156 18.570312 Z M 20.035156 18.570312 "/>
<path style=" stroke:none;fill-rule:nonzero;fill:rgb(15.686275%,10.980392%,12.156863%);fill-opacity:1;" d="M 14.324219 19.132812 C 13.984375 18.980469 13.625 18.257812 13.835938 17.992188 C 13.953125 18.277344 13.945312 18.632812 14.164062 18.863281 C 14.460938 19.039062 14.832031 18.90625 15.15625 18.9375 C 15.222656 19.125 14.964844 19.078125 14.859375 19.144531 C 14.898438 19.222656 14.972656 19.296875 14.96875 19.394531 C 14.683594 19.351562 14.394531 19.308594 14.105469 19.335938 C 13.898438 20.027344 13.617188 20.707031 13.5625 21.429688 C 13.140625 21.210938 13.769531 20.757812 13.640625 20.414062 C 13.875 19.992188 13.78125 19.304688 14.324219 19.132812 Z M 14.324219 19.132812 "/>
<path style=" stroke:none;fill-rule:nonzero;fill:rgb(73.333335%,74.509805%,74.901962%);fill-opacity:1;" d="M 13.292969 18.542969 C 13.347656 18.453125 13.585938 18.351562 13.484375 18.539062 C 13.257812 18.941406 12.796875 19.222656 12.726562 19.699219 C 12.355469 19.257812 12.992188 18.878906 13.292969 18.542969 Z M 13.292969 18.542969 "/>
<path style=" stroke:none;fill-rule:nonzero;fill:rgb(85.09804%,85.490197%,84.313726%);fill-opacity:1;" d="M 12.726562 19.699219 C 12.796875 19.222656 13.257812 18.941406 13.484375 18.539062 C 13.992188 19.253906 13.339844 20.027344 13.214844 20.757812 C 13.183594 20.867188 13.179688 20.992188 13.074219 21.0625 C 12.992188 20.601562 12.816406 20.160156 12.726562 19.699219 Z M 12.726562 19.699219 "/>
<path style=" stroke:none;fill-rule:nonzero;fill:rgb(69.803923%,70.980394%,71.372551%);fill-opacity:1;" d="M 15.953125 18.570312 C 16.203125 18.882812 16.976562 19.28125 16.652344 19.714844 C 16.441406 19.410156 16.230469 19.09375 15.933594 18.863281 C 15.675781 19.0625 15.457031 19.371094 15.480469 19.710938 C 15.226562 19.332031 15.664062 18.878906 15.953125 18.570312 Z M 15.953125 18.570312 "/>
<path style=" stroke:none;fill-rule:nonzero;fill:rgb(86.274511%,86.274511%,85.09804%);fill-opacity:1;" d="M 15.480469 19.710938 C 15.457031 19.371094 15.675781 19.0625 15.933594 18.863281 C 16.230469 19.09375 16.441406 19.410156 16.652344 19.714844 C 16.398438 20.257812 16.0625 20.757812 15.789062 21.292969 C 15.550781 21.34375 15.722656 20.785156 15.621094 20.597656 C 15.613281 20.503906 15.59375 20.320312 15.585938 20.226562 C 15.542969 20.058594 15.480469 19.886719 15.480469 19.710938 Z M 15.480469 19.710938 "/>
<path style=" stroke:none;fill-rule:nonzero;fill:rgb(65.490198%,25.882354%,18.039216%);fill-opacity:1;" d="M 14.105469 19.335938 C 14.394531 19.308594 14.683594 19.351562 14.96875 19.394531 C 15.101562 20.203125 15.246094 21.011719 15.359375 21.824219 C 14.761719 21.6875 14.167969 21.527344 13.5625 21.429688 C 13.617188 20.707031 13.898438 20.027344 14.105469 19.335938 Z M 14.105469 19.335938 "/>
<path style=" stroke:none;fill-rule:nonzero;fill:rgb(57.647061%,60.000002%,61.176473%);fill-opacity:1;" d="M 15.585938 20.226562 C 15.59375 20.320312 15.613281 20.503906 15.621094 20.597656 C 15.476562 20.574219 15.503906 20.316406 15.585938 20.226562 Z M 15.585938 20.226562 "/>
<path style=" stroke:none;fill-rule:nonzero;fill:rgb(58.823532%,49.803922%,31.764707%);fill-opacity:1;" d="M 24.769531 22.089844 C 24.785156 21.847656 24.800781 21.605469 24.820312 21.363281 C 24.824219 21.605469 24.808594 21.847656 24.769531 22.089844 Z M 24.769531 22.089844 "/>
<path style=" stroke:none;fill-rule:nonzero;fill:rgb(56.078434%,58.823532%,61.176473%);fill-opacity:1;" d="M 9.902344 21.765625 C 10.578125 21.222656 11.566406 21.441406 12.359375 21.617188 C 12.464844 21.570312 12.554688 21.804688 12.421875 21.761719 C 11.597656 21.496094 10.730469 21.539062 9.9375 21.878906 C 9.929688 21.851562 9.910156 21.792969 9.902344 21.765625 Z M 9.902344 21.765625 "/>
<path style=" stroke:none;fill-rule:nonzero;fill:rgb(45.490196%,49.019608%,51.764709%);fill-opacity:1;" d="M 9.9375 21.878906 C 10.730469 21.539062 11.597656 21.496094 12.421875 21.761719 C 12.050781 22.105469 11.785156 22.546875 11.632812 23.03125 C 10.9375 22.644531 10.21875 22.246094 9.402344 22.195312 C 9.460938 21.976562 9.734375 21.894531 9.902344 21.765625 C 9.910156 21.792969 9.929688 21.851562 9.9375 21.878906 Z M 9.9375 21.878906 "/>
<path style=" stroke:none;fill-rule:nonzero;fill:rgb(84.705883%,85.490197%,84.705883%);fill-opacity:1;" d="M 12.644531 22.183594 C 12.785156 21.9375 13.1875 21.660156 13.371094 21.953125 C 12.894531 22.480469 12.546875 23.109375 12.386719 23.8125 C 12.359375 23.878906 12.328125 23.945312 12.300781 24.011719 C 11.671875 23.535156 12.242188 22.617188 12.644531 22.183594 Z M 12.644531 22.183594 "/>
<path style=" stroke:none;fill-rule:nonzero;fill:rgb(27.058825%,31.37255%,34.509805%);fill-opacity:1;" d="M 13.917969 22.167969 C 14.191406 21.84375 14.703125 22.164062 15.023438 22.230469 C 16.136719 22.691406 17.402344 22.800781 18.441406 23.425781 C 17.480469 23.257812 16.570312 22.847656 15.613281 22.660156 C 15.042969 22.511719 14.441406 22.421875 13.917969 22.167969 Z M 13.917969 22.167969 "/>
<path style=" stroke:none;fill-rule:nonzero;fill:rgb(30.588236%,34.117648%,37.254903%);fill-opacity:1;" d="M 18.5625 22.65625 C 18.402344 22.574219 18.296875 22.144531 18.722656 22.433594 C 19.257812 22.550781 19.824219 22.855469 19.984375 23.421875 C 19.445312 23.367188 19.160156 22.683594 18.5625 22.65625 Z M 18.5625 22.65625 "/>
<use xlink:href="#surface47" mask="url(#mask14)"/>
<path style=" stroke:none;fill-rule:nonzero;fill:rgb(53.725493%,56.078434%,58.431375%);fill-opacity:1;" d="M 12.300781 24.011719 C 12.328125 23.945312 12.359375 23.878906 12.386719 23.8125 C 12.503906 23.882812 12.382812 24.183594 12.300781 24.011719 Z M 12.300781 24.011719 "/>
<path style=" stroke:none;fill-rule:nonzero;fill:rgb(83.529413%,61.56863%,26.274511%);fill-opacity:1;" d="M 10.492188 26.632812 C 11.097656 26.621094 11.6875 26.472656 12.28125 26.371094 C 12.5625 26.605469 12.925781 26.761719 13.191406 27.007812 C 12.707031 27.335938 12.117188 27.421875 11.566406 27.570312 C 11.195312 27.292969 10.699219 27.039062 10.492188 26.632812 Z M 10.492188 26.632812 "/>
<use xlink:href="#surface50" mask="url(#mask15)"/>
<path style=" stroke:none;fill-rule:nonzero;fill:rgb(94.901961%,73.725492%,32.549021%);fill-opacity:1;" d="M 11.566406 27.570312 C 12.117188 27.421875 12.707031 27.335938 13.191406 27.007812 C 14.058594 27.5625 14.945312 28.09375 15.878906 28.539062 C 16.265625 28.402344 16.625 28.132812 17.019531 27.972656 C 17.628906 28.203125 18.277344 28.308594 18.894531 28.503906 C 17.925781 29.109375 16.929688 29.710938 15.878906 30.140625 C 14.363281 29.425781 12.875 28.621094 11.566406 27.570312 Z M 11.566406 27.570312 "/>
<path style=" stroke:none;fill-rule:nonzero;fill:rgb(83.529413%,61.960787%,27.058825%);fill-opacity:1;" d="M 18.070312 27.347656 C 18.445312 27.335938 18.8125 27.441406 19.183594 27.472656 C 19.40625 27.507812 19.632812 27.507812 19.855469 27.476562 C 20.023438 27.460938 20.195312 27.457031 20.363281 27.457031 C 19.921875 27.851562 19.382812 28.226562 18.894531 28.503906 C 18.277344 28.308594 17.628906 28.203125 17.019531 27.972656 C 17.34375 27.742188 17.714844 27.546875 18.070312 27.347656 Z M 18.070312 27.347656 "/>
<path style=" stroke:none;fill-rule:nonzero;fill:rgb(44.313726%,36.862746%,22.352941%);fill-opacity:1;" d="M 19.183594 27.472656 C 19.40625 27.460938 19.632812 27.445312 19.855469 27.476562 C 19.632812 27.507812 19.40625 27.507812 19.183594 27.472656 Z M 19.183594 27.472656 "/>
<use xlink:href="#surface53" mask="url(#mask16)"/>
</g>
</svg>
